<svg width="1063" height="715" xmlns="http://www.w3.org/2000/svg">
 <title>Stability ball</title>

 <g>
  <title>background</title>
  <rect x="-1" y="-1" width="1065" height="717" id="canvas_background" fill="none"/>
 </g>
 <g>
  <title>Layer 1</title>
  <ellipse cx="800" cy="653.42" rx="904.27" ry="17.89" fill="#000000" opacity="0.1" id="svg_3"/>
  <path d="m999.72,174.410001a105.8,105.8 0 0 0 8.38,-12.34l-59.12,-9.7l63.94,0.47a107.93,107.93 0 0 0 2.06,-85.4l-85.78,44.5l79.11,-58.15a107.78,107.78 0 1 0 -178,120.62a108.18,108.18 0 0 0 -12.29,19.65l76.74,39.87l-81.82,-27.46a107.83,107.83 0 0 0 17.36,101.21a107.79,107.79 0 0 0 64.83,172.57a37,37 0 0 0 -2.13,12.52a35.52,35.52 0 0 0 4.69,18a36.89,36.89 0 0 0 0,36a36.89,36.89 0 0 0 0,36a36.89,36.89 0 0 0 0,36a35.52,35.52 0 0 0 -4.69,18c0,16.27 10.07,29.45 22.5,29.45s22.5,-13.18 22.5,-29.45a35.53,35.53 0 0 0 -4.7,-18a36.82,36.82 0 0 0 0,-36a36.82,36.82 0 0 0 0,-36a36.82,36.82 0 0 0 0,-36a35.53,35.53 0 0 0 4.7,-18a37.1,37.1 0 0 0 -2.19,-12.69a107.79,107.79 0 0 0 63.91,-172.4a107.77,107.77 0 0 0 0,-133.27z" fill="#cddc39" id="svg_1"/>
  <path d="m643.33,289.110001a72.48,72.48 0 0 1 -5.6,-8.25l39.53,-6.49l-42.75,0.31a72.17,72.17 0 0 1 -1.38,-57.1l57.37,29.76l-52.9,-38.89a72.07,72.07 0 1 1 119,80.66a71.75,71.75 0 0 1 8.22,13.14l-51.32,26.66l54.74,-18.37a72.06,72.06 0 0 1 -11.62,67.68a72.07,72.07 0 0 1 -43.34,115.4a24.83,24.83 0 0 1 1.42,8.37a23.7,23.7 0 0 1 -3.14,12a24.63,24.63 0 0 1 0,24.07a24.65,24.65 0 0 1 0,24.08a24.63,24.63 0 0 1 0,24.07a23.71,23.71 0 0 1 3.14,12c0,10.87 -6.73,19.69 -15,19.69s-15,-8.82 -15,-19.69a23.71,23.71 0 0 1 3.14,-12a24.63,24.63 0 0 1 0,-24.07a24.65,24.65 0 0 1 0,-24.08a24.63,24.63 0 0 1 0,-24.07a23.7,23.7 0 0 1 -3.14,-12a24.76,24.76 0 0 1 1.47,-8.49a72.08,72.08 0 0 1 -42.75,-115.28a72.08,72.08 0 0 1 0,-89.11l-0.09,0z" fill="#c0ca33" id="svg_2"/>
  <path d="m715.97,510.380001c0,2 -0.06,4 -0.17,5.92c0,0.29 0,0.57 0,0.86a107.09,107.09 0 0 1 -4.57,24.89c-0.07,0.25 -0.16,0.52 -0.24,0.77a115.19,115.19 0 0 1 -10.26,23.09l-0.43,0.72a128.5,128.5 0 0 1 -16,21.46l-0.62,0.66a146,146 0 0 1 -22.53,19.68c-0.28,0.21 -0.57,0.42 -0.85,0.61a166.55,166.55 0 0 1 -27.17,15.44c-1.31,0.59 -2.63,1.17 -4,1.74l-1.2,0.5a188.12,188.12 0 0 1 -45.43,12.33l-1.91,0.26a201.11,201.11 0 0 1 -26.42,1.73c-65.48,0 -121.88,-31.42 -147.33,-76.63q-2.57,-4.53 -4.69,-9.24l-0.58,-1.29a108.54,108.54 0 0 1 -9.07,-38.89c0,-0.33 0,-0.65 0,-1c0,-1.2 -0.05,-2.41 -0.05,-3.62a106.78,106.78 0 0 1 3.64,-27.69c0.07,-0.28 0.14,-0.55 0.22,-0.82a113.32,113.32 0 0 1 11,-26.32c0.13,-0.23 0.26,-0.47 0.4,-0.7a127.48,127.48 0 0 1 16.56,-22.3a7.23,7.23 0 0 1 0.53,-0.59l0.08,-0.08c0.79,-0.84 1.59,-1.69 2.41,-2.52l1.23,-1.24c0.81,-0.81 1.64,-1.6 2.47,-2.4l0.05,0q3,-2.82 6.11,-5.47c2.88,-2.44 5.89,-4.79 9,-7.05l0.67,-0.5a167,167 0 0 1 26.22,-15.31c0.27,-0.13 0.55,-0.27 0.82,-0.38a182,182 0 0 1 32.19,-11.34c0.35,-0.1 0.69,-0.18 1,-0.26a196.7,196.7 0 0 1 41.82,-5.55c0.47,0 0.94,0 1.42,0c1.28,0 2.57,-0.05 3.86,-0.05c64.89,0 120.86,30.87 146.64,75.4c0.23,0.4 0.45,0.8 0.68,1.19l1,1.75c0.55,1 1.07,2 1.59,3.06c0.24,0.48 0.47,0.95 0.7,1.43c0.14,0.28 0.29,0.56 0.42,0.85l0,0a110.21,110.21 0 0 1 8.43,24.62c0.08,0.33 0.14,0.65 0.21,1a107,107 0 0 1 2.15,21.28z" fill="#63cdff" id="svg_4"/>

  <g opacity="0.2" id="svg_5">
   <path d="m701.5,456.300001q-11.09,-4.2 -22,-8.74a852.93,852.93 0 0 1 -130.55,-67.77l1.42,0a853.15,853.15 0 0 0 150.5,75.36c0.19,0.39 0.41,0.76 0.63,1.15z" fill="#f2f2f2" id="svg_6"/>
  </g>
  <g opacity="0.2" id="svg_7">
   <path d="m713.81,488.980001q-27,-9 -53.43,-20a853,853 0 0 1 -131.83,-68.54q-11.84,-7.53 -22.5,-14.85l1,-0.25q10.41,7.11 22,14.48a852.72,852.72 0 0 0 184.55,88.2c0.08,0.32 0.14,0.64 0.21,0.96z" fill="#f2f2f2" id="svg_8"/>
  </g>
  <g opacity="0.2" id="svg_9">
   <path d="m715.8,516.300001c0,0.29 0,0.58 0,0.86q-37.69,-11.49 -74.45,-26.68a853.06,853.06 0 0 1 -131.85,-68.59c-13.25,-8.43 -25.41,-16.69 -36.43,-24.57l0.82,-0.39c10.93,7.81 23,16 36.1,24.34a850.25,850.25 0 0 0 205.81,95.03z" fill="#f2f2f2" id="svg_10"/>
  </g>
  <g opacity="0.2" id="svg_11">
   <path d="m711.18,542.040001c-0.07,0.27 -0.16,0.53 -0.24,0.79a822.66,822.66 0 0 1 -88.72,-30.9a852.13,852.13 0 0 1 -131.83,-68.58c-16.46,-10.47 -31.23,-20.69 -44.24,-30.22l0.67,-0.49c13,9.49 27.68,19.66 44.06,30.09a848.43,848.43 0 0 0 220.3,99.31z" fill="#f2f2f2" id="svg_12"/>
  </g>
  <g opacity="0.2" id="svg_13">
   <path d="m700.68,565.910001l-0.43,0.72a820.28,820.28 0 0 1 -97.11,-33.24a853.56,853.56 0 0 1 -131.84,-68.58c-17.64,-11.23 -33.36,-22.18 -47,-32.29c0.16,-0.19 0.34,-0.39 0.53,-0.58c13.66,10.1 29.37,21 47,32.25c52.37,33.35 130.81,74.84 228.85,101.72z" fill="#f2f2f2" id="svg_14"/>
  </g>
  <g opacity="0.2" id="svg_15">
   <path d="m684.26,588.090001l-0.62,0.66a818.63,818.63 0 0 1 -99.58,-33.9a853.1,853.1 0 0 1 -131.84,-68.58c-16.72,-10.66 -31.72,-21.05 -44.91,-30.73c0.13,-0.23 0.26,-0.46 0.4,-0.69c13.19,9.69 28.23,20.11 45,30.79c52.88,33.67 132.27,75.6 231.55,102.45z" fill="#f2f2f2" id="svg_16"/>
  </g>
  <g opacity="0.2" id="svg_17">
   <path d="m661.11,608.430001c-0.28,0.21 -0.57,0.42 -0.85,0.61a821.81,821.81 0 0 1 -95.28,-32.73a852.65,852.65 0 0 1 -131.84,-68.58c-13.5,-8.6 -25.89,-17 -37.08,-25.05c0.07,-0.27 0.14,-0.54 0.22,-0.81c11.27,8.07 23.74,16.57 37.36,25.24c52.15,33.2 130.09,74.43 227.47,101.32z" fill="#f2f2f2" id="svg_18"/>
  </g>
  <g opacity="0.2" id="svg_19">
   <path d="m629.12,626.220001l-1.2,0.5a821.19,821.19 0 0 1 -82,-28.95c-26,-10.75 -51.61,-22.88 -76.59,-36.25q-28.2,-15.12 -55.25,-32.33q-11.31,-7.2 -21.54,-14.2c0,-0.33 0,-0.65 0,-1q10.48,7.15 22.09,14.56c16.43,10.47 35.43,21.73 56.79,33.1a844.07,844.07 0 0 0 157.7,64.57z" fill="#f2f2f2" id="svg_20"/>
  </g>
  <g opacity="0.2" id="svg_21">
   <path d="m582.5,639.050001l-1.91,0.26q-27.17,-9.09 -53.8,-20.09a849.69,849.69 0 0 1 -111.29,-55.95q-6.68,-4 -13.3,-8.1l-0.58,-1.29q7.29,4.54 15.18,9.25a851.6,851.6 0 0 0 165.7,75.92z" fill="#f2f2f2" id="svg_22"/>
  </g>
  <path d="m633.09,624.480001c-1.31,0.59 -2.63,1.17 -4,1.74l-1.2,0.5a188.12,188.12 0 0 1 -45.39,12.33l-1.91,0.26a201.11,201.11 0 0 1 -26.42,1.73c-65.48,0 -121.88,-31.42 -147.33,-76.63c2.86,-0.44 5.73,-0.81 8.61,-1.14l1.3,-0.14c7.74,-0.82 15.54,-1.28 23.32,-1.61a279.21,279.21 0 0 1 29.22,0c0.68,0 1.36,0.08 2,0.14a134,134 0 0 1 19.71,2.88c19.75,4.48 37.85,14.21 55.79,23.6c27.71,14.46 56.04,28.56 86.3,36.34z" opacity="0.1" id="svg_23"/>
  <path d="m700.83,455.110001c-25.78,-44.53 -81.75,-75.4 -146.64,-75.4c-1.29,0 -2.58,0 -3.86,0l-1.42,0a196.06,196.06 0 0 0 -41.82,5.55l-1,0.25a183.63,183.63 0 0 0 -32.19,11.34l-0.82,0.39a166.27,166.27 0 0 0 -26.22,15.32l-0.67,0.49a145.36,145.36 0 0 0 -21.27,18.74c-0.84,8.53 -2.28,16.88 -6,24.57c-2.62,5.4 -5.33,10.6 -1.62,16c2.49,3.63 7.88,8.23 12.47,8.41c12.61,0.51 19.62,-16.35 25.56,-24.75c9.1,-12.86 22.59,-21.79 35.77,-30.42c5.63,-3.69 11.32,-7.41 17.67,-9.62a60.67,60.67 0 0 1 16.55,-2.91c15.33,-0.86 31,1.47 45,7.82c16,7.25 30.2,19.75 47.66,21.48c7.91,0.78 16,-0.75 23.75,1.06c13.77,3.23 23.32,16.22 36.72,20.76c8.67,2.94 18,2 26.82,-0.88q-1.71,-3.6 -3.67,-7.09c-0.32,-0.31 -0.54,-0.68 -0.77,-1.11z" opacity="0.1" id="svg_24"/>
  <path d="m308.64,505.220001c-4.74,5 -10.06,9.39 -14.95,14.24c-18.11,18 -29.72,41.39 -46,61c-4.39,5.29 -9.16,10.37 -12.43,16.41s-4.91,13.39 -2.57,19.85c2,5.54 6.61,9.69 11.09,13.52a50.93,50.93 0 0 0 9.05,6.63c7.52,4 16.42,4.22 24.94,4.35c4.7,0.07 10.43,-0.46 12.44,-4.71a82.57,82.57 0 0 1 -20.8,-14.16c-3.53,-3.3 -6.86,-7.08 -8.29,-11.69c-2.44,-7.86 1.17,-16.42 6.28,-22.87s11.7,-11.62 16.69,-18.16s8.21,-14.05 14.22,-19.39c4.16,-3.69 9.33,-6 14,-9.07c6.82,-4.49 12.45,-10.53 18,-16.51l29.5,-31.73a4.21,4.21 0 0 0 1.39,-2.35c0.12,-1.19 -0.76,-2.23 -1.6,-3.09c-6.42,-6.59 -18.52,-18.16 -27.34,-9.48c-8.5,8.36 -15.39,18.53 -23.62,27.21z" fill="#a0616a" id="svg_25"/>
  <path d="m308.64,505.220001c-4.74,5 -10.06,9.39 -14.95,14.24c-18.11,18 -29.72,41.39 -46,61c-4.39,5.29 -9.16,10.37 -12.43,16.41s-4.91,13.39 -2.57,19.85c2,5.54 6.61,9.69 11.09,13.52a50.93,50.93 0 0 0 9.05,6.63c7.52,4 16.42,4.22 24.94,4.35c4.7,0.07 10.43,-0.46 12.44,-4.71a82.57,82.57 0 0 1 -20.8,-14.16c-3.53,-3.3 -6.86,-7.08 -8.29,-11.69c-2.44,-7.86 1.17,-16.42 6.28,-22.87s11.7,-11.62 16.69,-18.16s8.21,-14.05 14.22,-19.39c4.16,-3.69 9.33,-6 14,-9.07c6.82,-4.49 12.45,-10.53 18,-16.51l29.5,-31.73a4.21,4.21 0 0 0 1.39,-2.35c0.12,-1.19 -0.76,-2.23 -1.6,-3.09c-6.42,-6.59 -18.52,-18.16 -27.34,-9.48c-8.5,8.36 -15.39,18.53 -23.62,27.21z" id="svg_26" fill="#ffd8af"/>
  <path d="m350.8,447.540001c5.95,-1.26 12.36,1.91 18.11,-0.06c3.26,-1.12 5.75,-3.72 8.1,-6.24l9.6,-10.23c2.71,-2.89 5.47,-5.84 7.14,-9.44c1.48,-3.18 2,-6.69 2.72,-10.13c1.76,-8.8 4.77,-17.82 11.38,-23.88c8.24,-7.58 20.94,-9 31.52,-5.38s19.19,11.7 25.52,20.94c-5.66,6.8 -12,13.08 -17.65,19.88a32.79,32.79 0 0 1 -6.31,6.31a35.24,35.24 0 0 1 -8.43,3.73c-10.17,3.6 -21,8.81 -25.19,18.76c-1.46,3.46 -2,7.23 -2.8,10.9c-1.54,6.94 -4.35,13.81 -9.43,18.78s-12.75,7.69 -19.52,5.54c-7.49,-2.38 -12.08,-9.72 -15.94,-16.56a79.88,79.88 0 0 1 -8.82,-22.92z" fill="#a0616a" id="svg_27"/>
  <path d="m350.8,447.540001c5.95,-1.26 12.36,1.91 18.11,-0.06c3.26,-1.12 5.75,-3.72 8.1,-6.24l9.6,-10.23c2.71,-2.89 5.47,-5.84 7.14,-9.44c1.48,-3.18 2,-6.69 2.72,-10.13c1.76,-8.8 4.77,-17.82 11.38,-23.88c8.24,-7.58 20.94,-9 31.52,-5.38s19.19,11.7 25.52,20.94c-5.66,6.8 -12,13.08 -17.65,19.88a32.79,32.79 0 0 1 -6.31,6.31a35.24,35.24 0 0 1 -8.43,3.73c-10.17,3.6 -21,8.81 -25.19,18.76c-1.46,3.46 -2,7.23 -2.8,10.9c-1.54,6.94 -4.35,13.81 -9.43,18.78s-12.75,7.69 -19.52,5.54c-7.49,-2.38 -12.08,-9.72 -15.94,-16.56a79.88,79.88 0 0 1 -8.82,-22.92z" id="svg_28" fill="#ffe0bd"/>
  <path d="m611.31,407.820001c37.58,13.45 74.94,29.38 106,54.5c14.22,11.51 26.89,24.79 40.41,37.12c7.08,6.46 14.39,12.65 21.7,18.85l51.89,44c6.42,5.45 12.87,10.91 20,15.47c16.77,10.78 36.77,16.26 53.19,27.85a53.2,53.2 0 0 0 2.9,17.59a10.12,10.12 0 0 0 10.26,6.69c25.86,-1.49 52.08,11.06 78.13,7.9a4.9,4.9 0 0 0 3.67,-2.35c1.75,-3.06 -1.24,-5.92 -3.86,-7.75l-35.37,-24.76c-5.83,-4.08 -11.66,-8.16 -17.6,-12.07c-21.48,-14.12 -44.42,-26.11 -64.33,-42.32c-4.25,-3.46 -8.34,-7.1 -12.44,-10.75c-21.68,-19.26 -43.37,-38.54 -63.92,-59c-29.87,-29.75 -58.12,-62.94 -87.73,-92.95a82.08,82.08 0 0 0 -9.08,-8.31a83.7,83.7 0 0 0 -9.91,-6.07l-37.59,-20.65c-5.69,-3.13 -12,-6.36 -18.35,-5.13a9.84,9.84 0 0 0 -9,2.3c-2.42,2.23 -4,5.18 -5.6,8.07a49.17,49.17 0 0 0 -4.9,11.15c-1.34,5.31 -0.9,11 -2.45,16.22c-1,3.45 -2.86,6.6 -4.12,10a34.36,34.36 0 0 0 -1.9,14.4z" fill="#a0616a" id="svg_29"/>
  <path d="m611.31,407.820001c37.58,13.45 74.94,29.38 106,54.5c14.22,11.51 26.89,24.79 40.41,37.12c7.08,6.46 14.39,12.65 21.7,18.85l51.89,44c6.42,5.45 12.87,10.91 20,15.47c16.77,10.78 36.77,16.26 53.19,27.85a53.2,53.2 0 0 0 2.9,17.59a10.12,10.12 0 0 0 10.26,6.69c25.86,-1.49 52.08,11.06 78.13,7.9a4.9,4.9 0 0 0 3.67,-2.35c1.75,-3.06 -1.24,-5.92 -3.86,-7.75l-35.37,-24.76c-5.83,-4.08 -11.66,-8.16 -17.6,-12.07c-21.48,-14.12 -44.42,-26.11 -64.33,-42.32c-4.25,-3.46 -8.34,-7.1 -12.44,-10.75c-21.68,-19.26 -43.37,-38.54 -63.92,-59c-29.87,-29.75 -58.12,-62.94 -87.73,-92.95a82.08,82.08 0 0 0 -9.08,-8.31a83.7,83.7 0 0 0 -9.91,-6.07l-37.59,-20.65c-5.69,-3.13 -12,-6.36 -18.35,-5.13a9.84,9.84 0 0 0 -9,2.3c-2.42,2.23 -4,5.18 -5.6,8.07a49.17,49.17 0 0 0 -4.9,11.15c-1.34,5.31 -0.9,11 -2.45,16.22c-1,3.45 -2.86,6.6 -4.12,10a34.36,34.36 0 0 0 -1.9,14.4z" id="svg_30" fill="#ffd8af"/>
  <circle cx="356.33" cy="483" r="42.31" fill="#ffe0bd" id="svg_31"/>
  <path d="m613.81,330.220001c5.91,0.1 12.62,0.56 16.34,5.15s2.88,10.88 1.94,16.54c-2.94,17.89 -6,36.1 -14.18,52.28a7.46,7.46 0 0 1 -2.91,3.55c-2.35,1.21 -5.14,-0.21 -7.39,-1.6c-16.39,-10.18 -32.78,-21.14 -51.46,-26a4.66,4.66 0 0 1 -2.91,-1.55a4.49,4.49 0 0 1 -0.17,-3.46c1.86,-8.29 4.21,-16.48 5.67,-24.86c0.88,-5 -0.75,-17 3.68,-20.1c4.69,-3.3 18.2,-0.51 23.75,-0.42l27.64,0.47z" fill="#ffe0bd" id="svg_32"/>
  <path d="m633.71,412.800001c37.58,13.45 74.94,29.38 105.95,54.49c14.22,11.52 26.89,24.8 40.41,37.13c7.08,6.46 14.39,12.65 21.7,18.84l51.89,44c6.42,5.44 12.87,10.91 20,15.46c16.84,10.82 36.84,16.28 53.2,27.82a53.21,53.21 0 0 0 2.9,17.6a10.13,10.13 0 0 0 10.26,6.69c25.86,-1.5 52.08,11.06 78.13,7.9a4.91,4.91 0 0 0 3.67,-2.36c1.75,-3 -1.24,-5.92 -3.86,-7.75l-35.37,-24.75c-5.83,-4.08 -11.66,-8.16 -17.6,-12.07c-21.44,-14.12 -44.38,-26.11 -64.29,-42.31c-4.25,-3.46 -8.34,-7.11 -12.44,-10.75c-21.68,-19.26 -43.37,-38.54 -63.93,-59c-29.86,-29.75 -58.11,-62.94 -87.72,-93a83.16,83.16 0 0 0 -9.11,-8.2a85,85 0 0 0 -9.91,-6.06l-37.59,-20.65c-5.69,-3.13 -12,-6.36 -18.35,-5.13a9.81,9.81 0 0 0 -9,2.29c-2.42,2.23 -4,5.19 -5.6,8.08a49.29,49.29 0 0 0 -4.9,11.14c-1.34,5.31 -0.9,11 -2.45,16.23c-1,3.45 -2.86,6.6 -4.12,10a34.34,34.34 0 0 0 -1.87,14.36z" fill="#ffe0bd" id="svg_33"/>
  <path d="m646.18,415.900001l1.19,-17.31c0.34,-4.84 0.68,-9.74 2.17,-14.35c1.69,-5.23 4.77,-9.88 7.9,-14.4a34.68,34.68 0 0 1 6,-7.13c3.41,-2.87 7.82,-4.43 11,-7.54c0.91,-0.89 1.76,-2.2 1.22,-3.35a3.36,3.36 0 0 0 -1,-1.08c-7.84,-6.43 -17.24,-10.61 -26.52,-14.72l-17.54,-7.76c-7.38,10 -14.89,20.31 -18.69,32.17a47.53,47.53 0 0 1 -2.15,6.18c-2.25,4.69 -6.52,8.11 -9.23,12.55c-2.55,4.18 -3.61,9.07 -4.62,13.86c-0.6,2.81 -1.18,5.81 -0.17,8.5c1.12,3 4,4.94 6.62,6.69c11.61,7.61 23.87,15.46 37.72,16.54c2.54,0.19 5.92,1.46 6.73,-1c0.57,-1.65 -0.76,-5.83 -0.63,-7.85z" fill="#3f3d56" id="svg_34"/>
  <path d="m299.59,464.540001c-4.38,5.87 -1.44,14.42 3.1,20.17s10.61,10.57 13.15,17.44c6.09,16.43 -10.9,33 -10.32,50.48c0.52,15.58 14.29,26.87 26,37.22c24.88,22 46.14,52.66 43.34,85.78a49.9,49.9 0 0 0 27.6,-20.37a53.71,53.71 0 0 1 4.66,26.63c26.08,-17.85 40.93,-50.85 37,-82.2c-1.87,-14.84 -7.59,-29.31 -6.7,-44.23c0.48,-8.09 2.89,-15.92 4.63,-23.84a145,145 0 0 0 3.3,-31.08c0,-11.92 -2.21,-25.16 -11.61,-32.49c-8,-6.23 -19,-6.44 -29.14,-6.39c-10.71,0.07 -21.42,0.12 -32.11,0.79c-10.91,0.68 -22.16,4.28 -32.9,4.55c-11.96,0.3 -28.81,-17.46 -40,-2.46z" fill="#3f3d56" id="svg_35"/>
  <path d="m459.5,386.270001a44.18,44.18 0 0 0 -18.51,11.87c-3.19,3.46 -5.83,7.41 -9.14,10.76c-3.94,4 -8.75,7 -13.36,10.2c-8.81,6.1 -17.06,12.95 -25.3,19.79l-40.6,33.7c-6.35,5.27 -12.7,10.55 -18.69,16.23c-7.39,7 -14.21,14.64 -22.1,21.09c-4.62,3.78 -9.59,7.15 -13.83,11.36c-4,4 -7.24,8.61 -10.52,13.18a634.75,634.75 0 0 1 -43,53.36c-6.49,7.23 -13.2,14.35 -21.09,20c-16.36,11.79 -28.78,29.44 -43.16,43.59c-1.22,1.2 -2.56,2.91 -1.81,4.46a3.36,3.36 0 0 0 2,1.51c10.52,3.92 19.58,-13.15 30.54,-10.73c5,1.1 8.07,5.83 11.65,9.44s9.72,6.27 13.46,2.82a59.44,59.44 0 0 1 3.79,-29.64c6.13,-15.21 18.29,-27.2 31.27,-37.24s27.11,-18.6 39.3,-29.59c20.45,-18.43 35.39,-43.57 59.65,-56.58c9.5,-5.1 20,-8.08 29.47,-13.3c18.33,-10.14 31.15,-28 41.17,-46.37a24.77,24.77 0 0 1 4.72,-6.81a26.71,26.71 0 0 1 6.9,-3.93a106.13,106.13 0 0 0 34,-24.91c-3,-2.15 -5.81,-4.45 -8.8,-6.61a35.63,35.63 0 0 1 -6.63,-5.67c-2,-2.36 -3.3,-5.19 -5,-7.77s-3.48,-3.28 -6.38,-4.21z" fill="#ffe0bd" id="svg_36"/>
  <path d="m568.75,389.360001c-2.64,-2.12 -2.73,-6 -2.6,-9.43q0.65,-15.78 1.28,-31.55c0.29,-7.41 1,-15.71 6.59,-20.57q-24.25,-4.87 -48.9,-7.47c-6.52,-0.69 -13.13,-1.26 -19.63,-0.31c-7.83,1.14 -15.17,4.42 -22.39,7.67c-8,3.6 -16.05,7.23 -23.22,12.28a93.32,93.32 0 0 1 -8.62,5.92c-5.44,3 -11.69,4 -17.55,6a57.17,57.17 0 0 0 -37.1,67.77c2,-5.17 3.4,-10.58 5.74,-15.61s5.79,-9.78 10.7,-12.35c5.12,-2.66 11.3,-2.64 16.87,-1.11s10.58,4.48 15.58,7.46c11.14,6.75 22.52,14.63 27.81,26.52c11,-8.18 22.25,-16 33.27,-24.22c4.78,-3.55 9.63,-7.13 15.17,-9.28c7.28,-2.83 15.27,-3 23.08,-3.15s16.28,-0.59 23.92,1.43z" fill="#fb8c00" id="svg_37"/>
  <polygon points="396.57 418.71 395.24 437.16 400.04 433.2 397.64 416.88 396.57 418.71" fill="#ff6584" id="svg_38"/>
  <path d="m216.33,181.780001l-15.52,9.84l9.42,-17.08a15.34,15.34 0 0 0 -9.39,-3.35l-0.25,0a18.16,18.16 0 0 1 -3.22,-0.24l-5.26,3.34l2.26,-4.1a18.7,18.7 0 0 1 -9.2,-7l-9.42,6l5.95,-10.81c-5.51,-6.61 -12.93,-10.66 -21.09,-10.66c-9.79,0 -18.51,5.82 -24.14,14.89a18.05,18.05 0 0 1 -16,8.61l-0.53,0c-10.81,0 -19.57,12.25 -19.57,27.37s8.76,27.37 19.57,27.37a14.73,14.73 0 0 0 6.82,-1.71a28.22,28.22 0 0 1 23.68,-0.46a24.66,24.66 0 0 0 20.14,0a28.25,28.25 0 0 1 23.48,0.46a14.65,14.65 0 0 0 6.74,1.67c10.81,0 19.57,-12.26 19.57,-27.37a34.71,34.71 0 0 0 -4.04,-16.77z" fill="#f2f2f2" id="svg_39"/>
  <path d="m187.08,221.830001a28.89,28.89 0 0 0 -16.77,1.82a24.71,24.71 0 0 1 -20.14,-0.05a28.22,28.22 0 0 0 -23.68,0.47a14.75,14.75 0 0 1 -6.82,1.7c-9.6,0 -17.59,-9.67 -19.25,-22.43a18.41,18.41 0 0 0 4.8,-5.17c5.62,-9.07 14.35,-14.9 24.14,-14.9s18.4,5.75 24,14.73a18.51,18.51 0 0 0 16,8.76l0.25,0c7.63,0 14.25,6.13 17.47,15.07z" opacity="0.03" id="svg_40"/>
  <path d="m493.3,239.670001l-7.74,4.87l4.7,-8.54a7.61,7.61 0 0 0 -4.68,-1.67l-0.08,0a9.42,9.42 0 0 1 -1.6,-0.12l-2.63,1.66l1.13,-2a9.31,9.31 0 0 1 -4.59,-3.49l-4.7,3l3,-5.39a13.74,13.74 0 0 0 -10.61,-5.34c-4.88,0 -9.23,2.9 -12,7.43a9,9 0 0 1 -8,4.29l-0.26,0c-5.39,0 -9.76,6.11 -9.76,13.65s4.37,13.65 9.76,13.65a7.35,7.35 0 0 0 3.4,-0.85a14,14 0 0 1 11.81,-0.23a12.41,12.41 0 0 0 5,1.08a12.28,12.28 0 0 0 5,-1.06a14.08,14.08 0 0 1 11.71,0.23a7.33,7.33 0 0 0 3.37,0.83c5.39,0 9.76,-6.11 9.76,-13.65a17.31,17.31 0 0 0 -1.99,-8.35z" fill="#f2f2f2" id="svg_41"/>
  <path d="m478.71,259.650001a14.4,14.4 0 0 0 -8.36,0.91a12.53,12.53 0 0 1 -5,1.06a12.29,12.29 0 0 1 -5.05,-1.08a14.08,14.08 0 0 0 -11.81,0.24a7.32,7.32 0 0 1 -3.4,0.85c-4.79,0 -8.77,-4.83 -9.6,-11.19a9.21,9.21 0 0 0 2.39,-2.58c2.81,-4.53 7.16,-7.43 12,-7.43s9.18,2.87 12,7.34a9.26,9.26 0 0 0 8,4.38l0.12,0c3.8,-0.02 7.11,3.04 8.71,7.5z" opacity="0.03" id="svg_42"/>
  <path d="m530.5,85.880001l12.43,7.89l-7.55,-13.73a12.32,12.32 0 0 1 7.52,-2.68l0.2,0a15.67,15.67 0 0 0 2.58,-0.19l4.22,2.67l-1.84,-3.3a15,15 0 0 0 7.37,-5.59l7.55,4.78l-4.77,-8.66c4.41,-5.3 10.36,-8.54 16.9,-8.54c7.85,0 14.83,4.66 19.34,11.93a14.45,14.45 0 0 0 12.79,6.89l0.42,0c8.66,0 15.68,9.81 15.68,21.93s-7,21.92 -15.68,21.92a11.8,11.8 0 0 1 -5.46,-1.36a22.59,22.59 0 0 0 -19,-0.37a20,20 0 0 1 -8.11,1.73a19.73,19.73 0 0 1 -8,-1.7a22.65,22.65 0 0 0 -18.81,0.37a11.85,11.85 0 0 1 -5.41,1.33c-8.66,0 -15.68,-9.81 -15.68,-21.92a27.89,27.89 0 0 1 3.31,-13.4z" fill="#f2f2f2" id="svg_43"/>
  <path d="m553.9,117.970001a23.14,23.14 0 0 1 13.44,1.46a19.77,19.77 0 0 0 16.13,0a22.67,22.67 0 0 1 19,0.37a11.69,11.69 0 0 0 5.46,1.37c7.69,0 14.09,-7.75 15.43,-18a14.69,14.69 0 0 1 -3.85,-4.15c-4.51,-7.26 -11.5,-11.93 -19.34,-11.93s-14.75,4.61 -19.26,11.8a14.83,14.83 0 0 1 -12.78,7l-0.2,0c-6.14,0.01 -11.43,4.92 -14.03,12.08z" opacity="0.03" id="svg_44"/>
  <path d="m324.24,309.950001c-0.52,-0.79 -3.07,0 -5.69,1.71c-0.46,0.31 -0.9,0.63 -1.3,0.95a18.84,18.84 0 0 0 -5.82,-1.9l0.11,-0.08a44.21,44.21 0 0 0 7.31,-6l-5.63,0l8.17,-3.14c1,-1.59 1.32,-2.92 0.77,-3.75c-1.48,-2.22 -8.62,-0.08 -16,4.8a39.56,39.56 0 0 0 -8.87,7.73c-6,0.7 -10.21,2.46 -10.21,4.51c0,1.42 2,2.7 5.25,3.59l-0.19,0.12c-7.34,4.87 -12.1,10.63 -10.62,12.85c1.3,2 7,0.52 13.38,-3.19l-4.23,-2l6.67,0.46l0.14,-0.09c0.71,-0.47 1.39,-0.95 2.05,-1.43l-5,-2.32l7.33,0.5a35.12,35.12 0 0 0 3.88,-3.75c6.83,-0.36 12.17,-2 13.1,-4.12a18.17,18.17 0 0 0 1.66,-0.86a15.6,15.6 0 0 0 2.6,-2.12l-2,0l2.91,-1.12c0.32,-0.58 0.43,-1.05 0.23,-1.35z" fill="#f2f2f2" id="svg_45"/>
 </g>
</svg>