<svg width="1020" height="668.18" xmlns="http://www.w3.org/2000/svg">
 <title>healthy_habit</title>

 <g>
  <title>background</title>
  <rect x="-1" y="-1" width="1022" height="670.18" id="canvas_background" fill="none"/>
 </g>
 <g>
  <title>Layer 1</title>
  <ellipse cx="137.95" cy="646.08" rx="72.74" ry="22.1" fill="#000000" opacity="0.1" id="svg_2"/>
  <ellipse cx="825.73" cy="363.42" rx="194.27" ry="12.89" fill="#000000" opacity="0.1" id="svg_3"/>
  <g opacity="0.5" id="svg_4">
   <path d="m708.28,68.4l0,0a10.16,10.16 0 0 1 10.16,10.16l0,282.5a0,0 0 0 1 0,0l-20.32,0a0,0 0 0 1 0,0l0,-282.51a10.16,10.16 0 0 1 10.16,-10.15z" fill="#63cdff" id="svg_5"/>
   <path d="m931.21,68.4l0,0a10.16,10.16 0 0 1 10.16,10.16l0,282.5a0,0 0 0 1 0,0l-20.37,0a0,0 0 0 1 0,0l0,-282.51a10.16,10.16 0 0 1 10.21,-10.15z" fill="#63cdff" id="svg_6"/>
   <rect x="1956.630039" y="-731.989985" width="20.32" height="361.84" rx="10.16" ry="10.16" transform="rotate(90 1057.0400390625002,-788.3599853515626) " fill="#63cdff" id="svg_7"/>
   <rect x="676.16" y="83.22" width="15.92" height="76.32" rx="7.96" ry="7.96" fill="#63cdff" id="svg_8"/>
   <rect x="660.24" y="90.36" width="15.92" height="62.05" rx="7.96" ry="7.96" fill="#63cdff" id="svg_9"/>
   <rect x="3038.12998" y="557.800013" width="15.92" height="76.32" rx="7.96" ry="7.96" transform="rotate(-180 2000.72998046875,358.6700134277344) " fill="#63cdff" id="svg_10"/>
   <rect x="3085.909956" y="564.940013" width="15.92" height="62.05" rx="7.96" ry="7.96" transform="rotate(180 2032.5799560546875,358.6700134277344) " fill="#63cdff" id="svg_11"/>
  </g>
  <g opacity="0.5" id="svg_12">
   <path d="m799.46,186.64l41.54,0a17,17 0 0 1 17,17l0,71.36a0,0 0 0 1 0,0l-75.5,0a0,0 0 0 1 0,0l0,-71.36a17,17 0 0 1 16.96,-17z" fill="#63cdff" id="svg_13"/>
   <rect x="814.68" y="268.59" width="11.05" height="36.83" fill="#63cdff" id="svg_14"/>
   <rect x="792.58" y="310.02" width="11.05" height="36.83" fill="#63cdff" id="svg_15"/>
   <rect x="838.62" y="310.02" width="11.05" height="36.83" fill="#63cdff" id="svg_16"/>
   <rect x="782.46" y="302.65" width="75.5" height="10.13" fill="#63cdff" id="svg_17"/>
  </g>
  <ellipse cx="473.09" cy="577.95" rx="414.32" ry="30.38" fill="#000000" opacity="0.1" id="svg_18"/>
  <path d="m580.36,469.759996s28.54,12.89 42.35,12.89c0,0 14.73,3.68 23,7.37s40.51,5.52 40.51,5.52s37.75,13.81 42.35,20.26s18.41,-23 18.41,-23l-7.37,-18.41l-139,-26.7l-20.25,22.07z" fill="#ffb9b9" id="svg_19"/>
  <path d="m580.36,469.759996s28.54,12.89 42.35,12.89c0,0 14.73,3.68 23,7.37s40.51,5.52 40.51,5.52s37.75,13.81 42.35,20.26s18.41,-23 18.41,-23l-7.37,-18.41l-139,-26.7l-20.25,22.07z" opacity="0.05" id="svg_20"/>
  <path d="m721.23,510.279996s17.49,23 10.13,36.83s-4.6,13.81 0,14.73s30.38,6.45 33.15,-13.81s8.29,-65.37 8.29,-65.37l-37.8,-3.69s10.17,34.07 -13.77,31.31z" fill="#4c4c4f" id="svg_21"/>
  <path d="m503.94,439.379996l79.18,36.83s24.86,-19.34 23,-29.46l-92.07,-22.1l-10.11,14.73z" fill="#001159" id="svg_22"/>
  <path d="m497.94,441.379996l79.18,36.83s24.86,-19.34 23,-29.46l-92.07,-22.1l-10.11,14.73z" opacity="0.1" id="svg_23"/>
  <path d="m836.32,487.259996l-8.32,20.25l-19.3,4.58a123.29,123.29 0 0 0 -17.29,-12.08c-10.39,-6 -24.06,-11.87 -37,-10.94c0,0 -51.56,-8.29 -54.32,-12c0,0 -33.15,-7.37 -40.51,-6.45c-3.55,0.44 -11.18,-2.11 -18.12,-4.88c-7.45,-3 -14.11,-6.17 -14.11,-6.17l23.94,-37.75a64.34,64.34 0 0 0 8.6,3c9.15,2.68 25.62,6.16 49.41,6.16c38.67,0 92.07,39.59 92.07,39.59s0.53,0.18 1.44,0.45c4,1.21 15.4,4.06 20.66,-0.45c6.4,-5.41 12.85,16.69 12.85,16.69z" fill="#ffb9b9" id="svg_24"/>
  <path d="m836.32,487.259996l-8.32,20.25l-19.3,4.58a123.29,123.29 0 0 0 -17.29,-12.08c28.08,2.11 11.31,-28.89 11.31,-28.89l0.06,0c4,1.21 15.4,4.06 20.66,-0.45c6.43,-5.51 12.88,16.59 12.88,16.59z" opacity="0.1" id="svg_25"/>
  <path d="m791.52,500.789996s22.27,31.23 12.9,48.82s-5.86,17.58 0,18.76s38.69,8.21 42.2,-17.58c2.7,-19.83 0.33,-57.89 -0.91,-74.41a7.89,7.89 0 0 0 -8.58,-7.26l-32.57,3s17.44,32.19 -13.04,28.67z" fill="#4c4c4f" id="svg_26"/>
  <polygon points="262.71 531.45 263.63 576.57 273.76 583.93 308.75 583.93 315.19 574.73 315.19 531.45 305.06 522.24 271.92 522.24 262.71 531.45" fill="#63cdff" id="svg_27"/>
  <path d="m268.23,532.369996s6.45,41.43 0,45.12l-4.6,-0.92l-0.92,-44.19l5.52,-0.01z" fill="#fff" opacity="0.2" id="svg_28"/>
  <path d="m343.73,528.689996l7.37,-7.37l35,0l7.37,7.37s9.21,26.7 1.84,44.19l-8.31,8.29l-35,0l-8.29,-7.37l0.02,-45.11z" fill="#63cdff" id="svg_29"/>
  <polygon points="262.71 531.45 263.63 576.57 273.76 583.93 308.75 583.93 315.19 574.73 315.19 531.45 305.06 522.24 271.92 522.24 262.71 531.45" opacity="0.1" id="svg_30"/>
  <path d="m343.73,528.689996l7.37,-7.37l35,0l7.37,7.37s9.21,26.7 1.84,44.19l-8.31,8.29l-35,0l-8.29,-7.37l0.02,-45.11z" opacity="0.1" id="svg_31"/>
  <path d="m352,530.529996s7.37,32.23 0,43.27l-8.29,0l0,-45.11l8.29,1.84z" fill="#fff" opacity="0.2" id="svg_32"/>
  <path d="m315.19,375.849996s3.68,35.91 3.68,40.51s-1.84,35 3.68,64.45s-3.68,66.28 -3.68,66.28l30.38,0l12.89,-99.44l-9.21,-52.48l-3.68,-16.57l-34.06,-2.75z" fill="#ffb9b9" id="svg_33"/>
  <path d="m315.19,375.849996s3.68,35.91 3.68,40.51s-1.84,35 3.68,64.45s-3.68,66.28 -3.68,66.28l30.38,0l12.89,-99.44l-9.21,-52.48l-3.68,-16.57l-34.06,-2.75z" opacity="0.05" id="svg_34"/>
  <path d="m309.67,284.699996s-40.51,0.92 -8.29,68.13c0,0 8.29,27.62 8.29,32.23s41.43,4.6 46,0s-7.37,-42.35 -7.37,-59.85s-11.93,-46.03 -38.63,-40.51z" fill="#cbcdda" id="svg_35"/>
  <path d="m309.67,284.699996s-40.51,0.92 -8.29,68.13c0,0 8.29,27.62 8.29,32.23s41.43,4.6 46,0s-7.37,-42.35 -7.37,-59.85s-11.93,-46.03 -38.63,-40.51z" opacity="0.05" id="svg_36"/>
  <path d="m260.87,245.089996s35,37.75 64.45,10.13l-3.68,97.6s-47.88,-58 -81,-53.4l20.23,-54.33z" fill="#ffb9b9" id="svg_37"/>
  <path d="m659.85,424.929996c-1.4,10.79 -5.8,33.51 -18.43,40.87c-7.45,-3 -14.11,-6.17 -14.11,-6.17l23.94,-37.75a64.34,64.34 0 0 0 8.6,3.05z" opacity="0.1" id="svg_38"/>
  <path d="m659.7,422.089996s-2.76,45.12 -24.86,48.8l-133.48,-24.08a40.29,40.29 0 0 1 -17.74,-8c-5.39,-4.24 -12,-10 -15.91,-15.28c-2.12,-2.88 -3.4,-5.63 -3.19,-7.9c0.92,-10.13 41.43,-34.07 27.62,-76.42a25.24,25.24 0 0 1 6.48,-3.72c11.53,-4.79 38.07,-8.31 76.38,31.34c0,0.05 70.89,57.14 84.7,55.26z" fill="#00156d" id="svg_39"/>
  <polygon points="296.78 535.13 297.7 580.25 307.82 587.62 342.81 587.62 349.26 578.41 349.26 535.13 339.13 525.93 305.98 525.93 296.78 535.13" fill="#63cdff" id="svg_40"/>
  <path d="m302.3,536.089996s6.45,41.43 0,45.12l-4.6,-0.92l-0.92,-44.2l5.52,0z" fill="#fff" opacity="0.2" id="svg_41"/>
  <path d="m398.06,531.449996l7.37,-7.37l35,0l7.37,7.37s9.21,26.7 1.84,44.19l-8.29,8.29l-35,0l-8.29,-7.37l0,-45.11z" fill="#63cdff" id="svg_42"/>
  <path d="m406.34,533.289996s7.37,32.23 0,43.27l-8.29,0l0,-45.11l8.29,1.84z" fill="#fff" opacity="0.2" id="svg_43"/>
  <path d="m349,548.949996l49.81,0c3.9,0 7.06,3.5 7.06,7.83l0,0c0,4.32 -3.16,7.83 -7.06,7.83l-49.81,0c-4.23,0 -7.51,-4.09 -7,-8.74l0,0c0.41,-3.95 3.43,-6.92 7,-6.92z" fill="#63cdff" id="svg_44"/>
  <path d="m492.89,405.309996c-9.85,6.9 -20.23,11.42 -27.19,15.27c-2.12,-2.88 -3.4,-5.63 -3.19,-7.9c0.92,-10.13 41.43,-34.07 27.62,-76.42a25.24,25.24 0 0 1 6.48,-3.72a28.12,28.12 0 0 0 6.41,-0.88s8.28,60.76 -10.13,73.65z" opacity="0.1" id="svg_45"/>
  <path d="m286.19,316.459996s13.81,13.81 27.16,22.56c12.32,8.07 -9.67,-73.2 -9.67,-73.2s13.64,-11 21.65,-17.53a27.44,27.44 0 0 1 19.08,-6.2c18.43,1.19 52.19,8.94 79.43,46.3c39.59,54.32 75.5,43.27 75.5,43.27s8.29,60.77 -10.13,73.66s-38.67,17.49 -35,24.86s-16.57,-35.91 -62.61,-43.27s-96.68,-39.59 -95.75,-55.24c0.01,-0.01 -13.34,-10.58 -9.66,-15.21z" fill="#ff5656" id="svg_46"/>
  <path d="m276.52,269.089996a46.27,46.27 0 0 0 -0.7,-7.94c-12.06,-6 -10.35,-14.16 -10.35,-14.16l-20.26,54.32c7.41,-1 15.56,1.08 23.74,5c10.77,-8.51 7.57,-22.53 7.57,-37.22z" opacity="0.1" id="svg_47"/>
  <circle cx="236.01" cy="268.13" r="46.04" fill="#ffb9b9" id="svg_48"/>
  <path d="m194.18,278.509996c-0.85,2.73 -2.16,5.54 -4.63,7c-3,1.78 -7.14,0.9 -9.81,-1.4s-4.11,-5.74 -4.86,-9.18a30.82,30.82 0 0 1 0.5,-15.05c1.2,-4.15 3.27,-8 4.14,-12.25c0.93,-4.52 0.46,-9.25 1.5,-13.75c1.41,-6.1 5.43,-11.21 9.35,-16.1a16.62,16.62 0 0 1 10.83,-7.2l19.27,-5.81a65.11,65.11 0 0 1 11.22,-2.68a38.87,38.87 0 0 1 14.59,1.28a33.61,33.61 0 0 1 10.58,4.72a39.13,39.13 0 0 1 8.35,8.45c10.19,13.32 16,35.11 26.51,48.22c-4.15,1.28 -8.3,-3 -12.45,-1.7a2.92,2.92 0 0 1 -1.87,0.15a3.07,3.07 0 0 1 -1.37,-1.52a31.87,31.87 0 0 0 -16.29,-13.94c-5.1,-1.93 -12,-1.92 -14.79,2.76c-1.89,3.16 -1.13,7.15 -0.63,10.8s0.41,8 -2.48,10.25a10.72,10.72 0 0 1 -5.38,1.82a59.28,59.28 0 0 1 -26.66,-2.61c-3,-1 -6.05,-4.13 -9.22,-3.13c-4.28,1.35 -5.27,7.24 -6.4,10.87z" opacity="0.1" id="svg_49"/>
  <path d="m193.17,277.499996c-0.85,2.73 -2.16,5.54 -4.63,7c-3,1.78 -7.14,0.9 -9.81,-1.4s-4.11,-5.74 -4.86,-9.18a30.82,30.82 0 0 1 0.5,-15.05c1.2,-4.15 3.27,-8 4.14,-12.25c0.93,-4.52 0.46,-9.25 1.5,-13.75c1.41,-6.1 5.43,-11.21 9.35,-16.1a16.62,16.62 0 0 1 10.83,-7.2l19.27,-5.81a65.11,65.11 0 0 1 11.22,-2.67a38.87,38.87 0 0 1 14.59,1.28a33.61,33.61 0 0 1 10.58,4.72a39.13,39.13 0 0 1 8.35,8.45c10.19,13.32 16,35.11 26.51,48.22c-4.15,1.28 -8.3,-3 -12.45,-1.7a2.92,2.92 0 0 1 -1.87,0.15a3.07,3.07 0 0 1 -1.39,-1.52a31.87,31.87 0 0 0 -16.29,-13.94c-5.1,-1.93 -12,-1.92 -14.79,2.76c-1.89,3.16 -1.13,7.15 -0.63,10.8s0.41,8 -2.48,10.25a10.72,10.72 0 0 1 -5.38,1.82a59.28,59.28 0 0 1 -26.66,-2.61c-3,-1 -6.05,-4.13 -9.22,-3.13c-4.26,1.34 -5.25,7.23 -6.38,10.86z" fill="#341c38" id="svg_50"/>
  <g opacity="0.1" id="svg_51">
   <path d="m306.8,263.309996l-3.12,2.52s12.89,47.63 13.4,66.34c6.58,-1.78 -6.08,-52.74 -10.28,-68.86z" id="svg_52"/>
   <path d="m491,397.949996c-18.41,12.89 -38.67,17.49 -35,24.86s-16.57,-35.91 -62.61,-43.27c-43.19,-6.91 -90.43,-35.7 -95.35,-52.16c-6.9,-5.9 -11.92,-10.91 -11.92,-10.91c-3.68,4.6 9.67,15.19 9.67,15.19c-0.92,15.65 49.72,47.88 95.75,55.24s66.29,50.64 62.61,43.27s16.57,-12 35,-24.86c5.27,-3.69 8.35,-11.3 10.07,-20.29c-1.78,5.69 -4.42,10.3 -8.22,12.93z" id="svg_53"/>
  </g>
  <path d="m398.06,486.339996c-2.76,3.68 -4.6,41.43 -4.6,41.43s11,54.32 -23,48.8s-4.6,-44.19 -4.6,-44.19l-4.6,-53.4c-17.49,-46 -13.81,-79.18 -13.81,-79.18l-3.27,-30.07l-1.34,-12.28l39.59,-9.21c-1.08,1.44 -0.62,10.42 0.35,20.85c1.51,16.34 4.25,36.23 4.25,36.23c8.26,9.2 13.79,77.33 11.03,81.02z" fill="#ffb9b9" id="svg_54"/>
  <path d="m341.89,265.369996s-40.51,0.92 -8.29,68.13c0,0 8.29,27.62 8.29,32.23s41.43,4.6 46,0s-7.37,-42.35 -7.37,-59.85s-11.93,-46.04 -38.63,-40.51z" opacity="0.1" id="svg_55"/>
  <path d="m382.75,369.089996c-8.6,2.35 -29.68,2.56 -38.61,0.64l-1.34,-12.28l39.59,-9.21c-1.06,1.43 -0.6,10.41 0.36,20.85z" opacity="0.1" id="svg_56"/>
  <path d="m340.05,265.369996s-40.51,0.92 -8.29,68.13c0,0 8.29,27.62 8.29,32.23s41.43,4.6 46,0s-7.37,-42.35 -7.37,-59.85s-11.93,-46.04 -38.63,-40.51z" fill="#cbcdda" id="svg_57"/>
  <g opacity="0.5" id="svg_58">
   <polygon points="75.04 409.5 45.72 410.1 40.94 416.68 40.94 439.42 46.92 443.61 75.04 443.61 81.03 437.03 81.03 415.49 75.04 409.5" fill="#63cdff" id="svg_59"/>
   <path d="m74.45,413.089996s-26.93,4.19 -29.32,0l0.6,-3l28.72,-0.6l0,3.6z" fill="#fff" opacity="0.2" id="svg_60"/>
   <path d="m77.44,475.319996l4.79,4.79l0,22.74l-4.79,4.79s-17.35,6 -28.72,1.2l-5.39,-5.39l0,-22.74l4.79,-5.39l29.32,0z" fill="#63cdff" id="svg_61"/>
   <path d="m76.24,480.709996s-20.94,4.79 -28.12,0l0,-5.39l29.32,0l-1.2,5.39z" fill="#fff" opacity="0.2" id="svg_62"/>
   <path d="m66.07,443.449996l0,32.37a4.86,4.86 0 0 1 -5.09,4.59l0,0a4.86,4.86 0 0 1 -5.09,-4.59l0,-32.37c0,-2.75 2.66,-4.88 5.68,-4.56l0,0a4.79,4.79 0 0 1 4.5,4.56z" fill="#63cdff" id="svg_63"/>
   <polygon points="122 410.42 92.68 411.02 87.89 417.6 87.89 440.34 93.88 444.53 122 444.53 127.98 437.95 127.98 416.41 122 410.42" fill="#63cdff" id="svg_64"/>
   <path d="m121.4,414.019996s-26.93,4.19 -29.32,0l0.6,-3l28.72,-0.6l0,3.6z" fill="#fff" opacity="0.2" id="svg_65"/>
   <path d="m124.39,476.249996l4.79,4.79l0,22.74l-4.79,4.79s-17.35,6 -28.72,1.2l-5.39,-5.39l0,-22.75l4.79,-5.39l29.32,0.01z" fill="#63cdff" id="svg_66"/>
   <path d="m123.2,481.629996s-20.94,4.79 -28.12,0l0,-5.39l29.32,0l-1.2,5.39z" fill="#fff" opacity="0.2" id="svg_67"/>
   <path d="m113,444.369996l0,32.37a4.86,4.86 0 0 1 -5.09,4.59l0,0a4.86,4.86 0 0 1 -5.09,-4.59l0,-32.37c0,-2.75 2.66,-4.88 5.68,-4.56l0,0a4.79,4.79 0 0 1 4.5,4.56z" fill="#63cdff" id="svg_68"/>
   <polygon points="181.78 427.74 157.64 428.23 153.7 433.65 153.7 452.37 158.63 455.81 181.78 455.81 186.7 450.39 186.7 432.66 181.78 427.74" fill="#63cdff" id="svg_69"/>
   <path d="m181.28,430.689996s-22.17,3.45 -24.14,0l0.49,-2.46l23.64,-0.49l0.01,2.95z" fill="#fff" opacity="0.2" id="svg_70"/>
   <path d="m183.75,481.919996l3.94,3.94l0,18.72l-3.94,3.94s-14.28,4.93 -23.64,1l-4.44,-4.43l0,-18.74l3.94,-4.43l24.14,0z" fill="#63cdff" id="svg_71"/>
   <path d="m182.76,486.349996s-17.24,3.94 -23.15,0l0,-4.43l24.14,0l-0.99,4.43z" fill="#fff" opacity="0.2" id="svg_72"/>
   <path d="m174.39,455.679996l0,26.65a4,4 0 0 1 -4.19,3.76l0,0a4,4 0 0 1 -4.19,-3.78l0,-26.63a4.05,4.05 0 0 1 4.68,-3.75l0,0a3.94,3.94 0 0 1 3.7,3.75z" fill="#63cdff" id="svg_73"/>
   <polygon points="220.43 428.49 196.29 428.99 192.35 434.4 192.35 453.12 197.28 456.57 220.43 456.57 225.36 451.15 225.36 433.42 220.43 428.49" fill="#63cdff" id="svg_74"/>
   <path d="m219.94,431.449996s-22.17,3.45 -24.14,0l0.49,-2.46l23.64,-0.49l0.01,2.95z" fill="#fff" opacity="0.2" id="svg_75"/>
   <path d="m222.4,482.679996l3.94,3.94l0,18.72l-3.94,3.94s-14.28,4.93 -23.64,1l-4.43,-4.43l0,-18.76l3.94,-4.43l24.13,0.02z" fill="#63cdff" id="svg_76"/>
   <path d="m221.42,487.089996s-17.24,3.94 -23.15,0l0,-4.43l24.13,0l-0.98,4.43z" fill="#fff" opacity="0.2" id="svg_77"/>
   <path d="m213,456.439996l0,26.65a4,4 0 0 1 -4.19,3.78l0,0a4,4 0 0 1 -4.19,-3.78l0,-26.65a4.05,4.05 0 0 1 4.68,-3.75l0,0a3.94,3.94 0 0 1 3.7,3.75z" fill="#63cdff" id="svg_78"/>
  </g>
  <g opacity="0.8" id="svg_79">
   <path d="m117.18,589.089996s-14.17,-4.8 -21,7.69a22.78,22.78 0 0 0 0.3,21.93c4.48,8.1 13.71,18.61 31.2,17.68c14.84,-0.79 19.77,-12.12 21.11,-22.65a23.27,23.27 0 0 0 -30.9,-24.91l-0.71,0.26z" fill="#ff5656" id="svg_80"/>
   <path d="m99.49,619.819996a22.78,22.78 0 0 1 -0.3,-21.93c6.82,-12.49 21,-7.69 21,-7.69l0.73,-0.26a23.06,23.06 0 0 1 16.65,0.37a23.06,23.06 0 0 0 -19.66,-1.88l-0.73,0.26s-14.17,-4.8 -21,7.69a22.78,22.78 0 0 0 0.3,21.93c3,5.33 8,11.7 16,15.17a35.13,35.13 0 0 1 -12.99,-13.66z" fill="#ff5656" opacity="0.1" id="svg_81"/>
   <path d="m109.86,595.089996s5.25,4.13 18,0" opacity="0.2" id="svg_82" fill="#ff5656"/>
   <path d="m108.74,565.089996s9,24.4 8.26,30.78l7.13,-0.75s-12,-21.39 -9,-30l-6.39,-0.03z" fill="#ff5656" id="svg_83"/>
   <path d="m108.74,565.089996s9,24.4 8.26,30.78l7.13,-0.75s-12,-21.39 -9,-30l-6.39,-0.03z" opacity="0.2" id="svg_84" fill="#ff5656"/>
   <path d="m145.5,567.089996s-14.18,-7.25 -20.52,-1.26s-7.32,21.3 -7.32,21.3s23.12,3.19 27.84,-20.04z" fill="#70d110" id="svg_85"/>
   <path d="m168.5,572.089996s-14.18,-7.25 -20.52,-1.26s-7.32,21.3 -7.32,21.3s23.12,3.19 27.84,-20.04z" fill="#66c904" opacity="0.1" id="svg_86"/>
   <path d="m117.66,587.089996s3.72,-17.77 27.84,-20" fill="#5bb203" stroke-miterlimit="10" id="svg_87"/>
  </g>
  <path d="m177,611.179996s-14.17,-4.8 -21,7.69a22.78,22.78 0 0 0 0.3,21.93c4.48,8.1 13.71,18.61 31.2,17.68c14.84,-0.79 19.77,-12.12 21.11,-22.65a23.27,23.27 0 0 0 -30.9,-24.91l-0.71,0.26z" fill="#ff5656" id="svg_88"/>
  <path d="m159.34,641.919996a22.78,22.78 0 0 1 -0.3,-21.93c6.82,-12.49 21,-7.69 21,-7.69l0.73,-0.26a23.06,23.06 0 0 1 16.65,0.37a23.06,23.06 0 0 0 -19.66,-1.88l-0.73,0.26s-14.17,-4.8 -21,7.69a22.78,22.78 0 0 0 0.3,21.93c3,5.33 8,11.7 16,15.17a35.13,35.13 0 0 1 -12.99,-13.66z" fill="#fff" opacity="0.1" id="svg_89"/>
  <path d="m169.71,617.179996s5.25,4.13 18,0" opacity="0.2" id="svg_90"/>
  <path d="m168.58,587.159996s9,24.4 8.26,30.78l7.13,-0.75s-12,-21.39 -9,-30l-6.39,-0.03z" fill="#63cdff" id="svg_91"/>
  <path d="m168.58,587.159996s9,24.4 8.26,30.78l7.13,-0.75s-12,-21.39 -9,-30l-6.39,-0.03z" opacity="0.2" id="svg_92"/>
  <path d="m205.35,589.189996s-14.18,-7.25 -20.52,-1.26s-7.32,21.3 -7.32,21.3s23.12,3.18 27.84,-20.04z" fill="#5fbf00" id="svg_93"/>
  <path d="m281.35,602.189996s-14.18,-7.25 -20.52,-1.26s-7.32,21.3 -7.32,21.3s23.12,3.18 27.84,-20.04z" fill="#fff" opacity="0.1" id="svg_94"/>
  <path d="m180.51,611.229996s3.72,-17.77 27.84,-20" fill="none" stroke="#63cdff" stroke-miterlimit="10" id="svg_95"/>
  <path d="m63,553.259996s1.39,-1.55 -1.22,-2.17l0,-2.55l1.57,0a13.46,13.46 0 0 0 -10.66,-13.16l0,-3.09l0.41,0l0,-4l-10.1,0l0,4l0.29,0l0,3.13a13.46,13.46 0 0 0 -10.48,13.12l1.4,0l0,2.45s-3.32,1.57 0,4.37s2.8,4.89 2.8,4.89s-1.4,5.24 -4.19,5.94l0,48.75a10.83,10.83 0 0 0 10.83,10.83l8.56,0a10.83,10.83 0 0 0 10.79,-10.82l0,-48.76s-4.89,-3.67 -4,-5.94a55,55 0 0 1 4,-6.99z" fill="#63cdff" id="svg_96"/>
 </g>
</svg>