<?xml version="1.0" encoding="utf-8"?>
<!-- Generator: Adobe Illustrator 23.0.3, SVG Export Plug-In . SVG Version: 6.00 Build 0)  -->
<svg version="1.1" baseProfile="tiny" id="master-artboard"
	 xmlns="http://www.w3.org/2000/svg" xmlns:xlink="http://www.w3.org/1999/xlink" x="0px" y="0px" viewBox="300 0 2200 1200"
	 xml:space="preserve">
<path fill="#6E758E" d="M2032.5,1600.4l4.8-18.7c3.3-12.7,0.5-25.9-7.5-36.3c-8-10.4-20.2-16.3-33.3-16.3h-42.7
	c-13.1,0-25.3,5.9-33.3,16.3c-8,10.4-10.8,23.6-7.5,36.3l4.8,18.7c-13.1,14-21,32.8-21,53.4c0,43.3,35.1,54.4,78.4,54.4
	s78.4-11,78.4-54.4C2053.5,1633.2,2045.5,1614.4,2032.5,1600.4z M1932.9,1555.1c5-6.5,12.6-10.2,20.8-10.2h42.7
	c8.2,0,15.8,3.7,20.8,10.2c5,6.5,6.7,14.7,4.7,22.7l-2.8,11.1c-12.5-8.5-27.7-13.5-44-13.5c-16.3,0-31.5,5-44,13.5l-2.8-11.1
	C1926.2,1569.9,1927.9,1561.6,1932.9,1555.1z"/>
<g>
	<g>
		<g>
			<g>
				<path fill="#6E758E" d="M1664.2,1383.2h-16.9c-10.8,0-19.5,8.7-19.5,19.5v280.7c0,10.8,8.7,19.5,19.5,19.5h16.9
					c10.8,0,19.5-8.7,19.5-19.5v-280.7C1683.6,1391.9,1674.9,1383.2,1664.2,1383.2z"/>
			</g>
			<path fill="#6E758E" d="M1713.8,1423.2h-16.2c-10.3,0-18.6,8.3-18.6,18.6v202.3c0,10.3,8.3,18.6,18.6,18.6h16.2
				c10.3,0,18.6-8.3,18.6-18.6v-202.3C1732.4,1431.5,1724.1,1423.2,1713.8,1423.2z"/>
			<g>
				<path fill="#6E758E" d="M931.2,1383.2h16.9c10.8,0,19.5,8.7,19.5,19.5v280.7c0,10.8-8.7,19.5-19.5,19.5h-16.9
					c-10.8,0-19.5-8.7-19.5-19.5v-280.7C911.7,1391.9,920.4,1383.2,931.2,1383.2z"/>
			</g>
			<g>
				<path fill="#6E758E" d="M881.5,1423.2h16.2c10.3,0,18.6,8.3,18.6,18.6v202.3c0,10.3-8.3,18.6-18.6,18.6h-16.2
					c-10.3,0-18.6-8.3-18.6-18.6v-202.3C862.9,1431.5,871.2,1423.2,881.5,1423.2z"/>
			</g>
		</g>
		<path fill="#6E758E" d="M805.7,1523.6h984v38.8h-984V1523.6z"/>
	</g>
</g>
<path fill="#A8AFC6" d="M2444.2,1795.2c0,71.2-449.4,128.9-1003.7,128.9s-1003.7-57.7-1003.7-128.9c0-71.2,449.4-128.9,1003.7-128.9
	S2444.2,1724,2444.2,1795.2z"/>
<path fill="#6E758E" d="M2068.3,1765.7c0,37-302.8,66.9-676.4,66.9h0c-373.6,0-676.4-30-676.4-66.9l0,0c0-37,302.8-66.9,676.4-66.9
	c0,0,0,0,0,0C1765.5,1698.8,2068.3,1728.8,2068.3,1765.7L2068.3,1765.7z"/>
<path fill="#6E758E" d="M1506.9,1784c8.5,35.8-55,81.5-141.8,102.2c-86.8,20.7-164.2,8.5-172.7-27.3c-8.5-35.8,55-81.5,141.8-102.2
	S1498.4,1748.2,1506.9,1784z"/>
<g>
	<path fill="#D1D5E5" d="M754.3,1228.2H637.1c-5.8,0-10.5,4.7-10.5,10.5v32.6c0,5.8,4.7,10.5,10.5,10.5h117.2
		c5.8,0,10.5-4.7,10.5-10.5v-32.6C764.8,1233,760.1,1228.2,754.3,1228.2z"/>
	<path fill="#D1D5E5" d="M2086.4,1152.9h-117.2c-5.8,0-10.5,4.7-10.5,10.5v32.6c0,5.8,4.7,10.5,10.5,10.5h117.2
		c5.8,0,10.5-4.7,10.5-10.5v-32.6C2096.9,1157.6,2092.2,1152.9,2086.4,1152.9z"/>
	<path fill="#D1D5E5" d="M1093.6,1150.3H976.4c-5.8,0-10.5,4.7-10.5,10.5v32.6c0,5.8,4.7,10.5,10.5,10.5h117.2
		c5.8,0,10.5-4.7,10.5-10.5v-32.6C1104.1,1155,1099.4,1150.3,1093.6,1150.3z"/>
	<path fill="#D1D5E5" d="M1953.8,1417h-117.2c-5.8,0-10.5,4.7-10.5,10.5v32.6c0,5.8,4.7,10.5,10.5,10.5h117.2
		c5.8,0,10.5-4.7,10.5-10.5v-32.6C1964.3,1421.8,1959.6,1417,1953.8,1417z"/>
	<path fill="#FFFFFF" d="M685.2,1320.7H568c-5.8,0-10.5,4.7-10.5,10.5v32.6c0,5.8,4.7,10.5,10.5,10.5h117.2
		c5.8,0,10.5-4.7,10.5-10.5v-32.6C695.7,1325.4,691,1320.7,685.2,1320.7z"/>
	<path fill="#FFFFFF" d="M2255.9,1375.2h-117.2c-5.8,0-10.5,4.7-10.5,10.5v32.6c0,5.8,4.7,10.5,10.5,10.5h117.2
		c5.8,0,10.5-4.7,10.5-10.5v-32.6C2266.5,1379.9,2261.8,1375.2,2255.9,1375.2z"/>
	<path fill="#FFFFFF" d="M1333.2,1290.5h-117.2c-5.8,0-10.5,4.7-10.5,10.5v32.6c0,5.8,4.7,10.5,10.5,10.5h117.2
		c5.8,0,10.5-4.7,10.5-10.5v-32.6C1343.8,1295.2,1339,1290.5,1333.2,1290.5z"/>
	<path fill="#FFFFFF" d="M1828.9,1270.7h-117.2c-5.8,0-10.5,4.7-10.5,10.5v32.6c0,5.8,4.7,10.5,10.5,10.5h117.2
		c5.8,0,10.5-4.7,10.5-10.5v-32.6C1839.4,1275.5,1834.7,1270.7,1828.9,1270.7z"/>
</g>
<g>
	<path fill="#D1D5E5" d="M2143.8,1100.8H800.7c-39.6,0-71.8-32.1-71.8-71.8V438.7c0-39.6,32.1-71.8,71.8-71.8h1343.1
		c39.6,0,71.8,32.1,71.8,71.8V1029C2215.6,1068.6,2183.5,1100.8,2143.8,1100.8z"/>
	<path fill="#F4F5FB" d="M800.7,1049.6c-11.4,0-20.6-9.2-20.6-20.6V438.7c0-11.4,9.2-20.6,20.6-20.6h1343.1
		c11.4,0,20.6,9.2,20.6,20.6V1029c0,11.4-9.2,20.6-20.6,20.6H800.7z"/>
	<g>
		<path fill="#FFFFFF" d="M2044.7,418.1h-32.8l-247.7,631.5h32.8L2044.7,418.1z"/>
		<path fill="#FFFFFF" d="M1661.9,1049.6h65.5l247.7-631.5h-65.5L1661.9,1049.6z"/>
	</g>
</g>
<g>
	<path fill="#7F6149" d="M1744.8,245.8v87.4h-252v-87.4c0-53.6,43.5-97.1,97.1-97.1h57.8c19.2,0,37.2,5.6,52.3,15.2
		c2,1.3,3.9,2.6,5.8,4C1729.4,185.6,1744.8,213.9,1744.8,245.8z"/>
	<path fill="#ECA49B" d="M1535.2,870c0,36.1-29.3,65.4-65.4,65.4l0,0c-36.1,0-65.4-29.3-65.4-65.4l0,0c0-36.1,29.3-65.4,65.4-65.4
		l0,0C1506,804.6,1535.2,833.8,1535.2,870L1535.2,870z"/>
	<path fill="#ECA49B" d="M1505.6,808.7l-86.6-96.8c18.8-12.3,37.6-32.4,52.3-58c16.2-28,24.3-57,24.2-80.8l11.2-20.2
		c12.8-23.2,4.4-52.4-18.8-65.2c-23.2-12.8-52.4-4.4-65.2,18.8l-23,41.7c-12.7,11.7-24.7,26.7-34.9,44.3
		c-11.5,19.9-18.9,40.3-22.2,59l-24.2,43.7c-9.9,17.8-7.4,40,6.2,55.2l109.5,122.4c9.5,10.6,22.6,16,35.8,16c11.4,0,22.8-4,32-12.2
		C1521.6,858.7,1523.2,828.4,1505.6,808.7z"/>
	<path fill="#ECA49B" d="M1881.5,763.2l-16.5-69c2.4-19.1,2.6-40.8-0.2-63.5c-5.5-45.8-21.1-84.7-40.2-105.5l-6.2-25.9
		c-6.1-25.8-32-41.7-57.8-35.5c-25.8,6.1-41.7,32-35.5,57.8l21.7,90.9c0,10.4,0.7,21.2,2,32.2c4.1,33.9,13.7,64.1,26.1,85.9l13.1,55
		c5.3,22,24.9,36.8,46.6,36.8c3.7,0,7.4-0.4,11.2-1.3C1871.8,814.8,1887.7,788.9,1881.5,763.2z"/>
	<path fill="#545972" d="M1555,529.7c0,40.4-32.7,73.1-73.1,73.1l0,0c-40.4,0-73.1-32.7-73.1-73.1c0,0,0,0,0,0
		c0-40.4,32.7-73.1,73.1-73.1l0,0C1522.3,456.6,1555,489.3,1555,529.7C1555,529.7,1555,529.7,1555,529.7z"/>
	<path fill="#545972" d="M1344.5,642.1c16.5-0.3,67.2,6.6,85.6,49.9c1.3,3.1,2.6,5.8,4,8.1c13.5-11.9,26.4-27.7,37.1-46.3
		c16.2-28,24.3-57,24.2-80.8l11.2-20.2c12.8-23.2,4.4-52.4-18.8-65.2c-23.2-12.8-52.4-4.4-65.2,18.8l-23,41.7
		c-12.7,11.7-24.7,26.7-34.9,44.3C1355.2,609,1348.4,626,1344.5,642.1z"/>
	<path fill="#545972" d="M1864.9,630.6c-4.7-39-16.7-72.9-31.9-95c0.2-2,0.3-3.9,0.3-5.9c0-40.4-32.7-73.1-73.1-73.1
		c-40.4,0-73.1,32.7-73.1,73.1c0,34.9,24.4,64,57.1,71.3l2.7,11.3c0,10.4,0.7,21.2,2,32.2c2,16.3,5.2,31.7,9.4,45.7
		c14.1-15.9,64-47.3,108-9.9C1867.4,664.8,1867,648,1864.9,630.6z"/>
	<path fill="#646884" d="M1803.9,546.7v77.9c0,42.4-29.6,77.8-69.2,86.9v163.6h-227.2V711.5c-39.6-9.1-69.2-44.5-69.2-86.9v-77.9
		c0-38.7,27.3-71,63.7-78.7c14.2-12.8,33.3-23.2,55.6-30.1c19.2-6,40.8-9.3,63.6-9.3s44.3,3.3,63.6,9.3
		c22.2,6.9,41.3,17.3,55.6,30.1C1776.6,475.7,1803.9,508,1803.9,546.7z"/>
	<path fill="#3D4359" d="M1752.6,468c-3.5-3.1-7.2-6.1-11.2-8.9c-6,1.6-11.7,4-17,6.9c0.6,0.6,1.2,1.3,1.7,1.9
		c28.3,7.8,49.5,40.1,49.5,78.7v77.9c0,23.5-7.1,44.8-18.6,60.7c0.5,1.6,0.9,3.3,1.4,4.9c7.7-8.8,26.3-22.2,48.8-26.3
		c5.8-11.9,9.1-25.2,9.1-39.3v-77.9C1816.3,508,1789,475.7,1752.6,468z"/>
	<path fill="#545972" d="M1740.2,468c-14.2-12.8-33.3-23.2-55.6-30.1c-19.2-6-40.8-9.3-63.6-9.3c17.7,0,34.5,3.3,49.4,9.3
		c17.3,6.9,32.1,17.3,43.2,30.1c28.3,7.8,49.5,40.1,49.5,78.7v77.9c0,42.4-23,77.8-53.8,86.9v163.6h25.3V711.5
		c39.6-9.1,69.2-44.5,69.2-86.9v-77.9C1803.9,508,1776.6,475.7,1740.2,468z"/>
	<path fill="#B9BED6" d="M1445.8,512.5c33.5-11.9,88.6-29.9,121-37.8l2.5,9c-34.9,8.6-96.2,28.8-127.9,40.4
		C1442.7,520.1,1444.1,516.2,1445.8,512.5z M1796.3,512.5c-33.5-11.9-88.6-29.9-121-37.8l-2.5,9c34.9,8.6,96.2,28.8,127.9,40.4
		C1799.4,520.1,1798,516.2,1796.3,512.5z"/>
	<path fill="#A3AAC1" d="M1798.7,518.3c0-0.1-0.1-0.2-0.1-0.4c-0.3-0.8-0.6-1.7-1-2.5c-0.1-0.2-0.2-0.4-0.3-0.6
		c-0.3-0.8-0.7-1.5-1-2.3c0,0,0,0,0,0c-13.1-4.7-29.6-10.3-46.6-15.8c2.3,3.7,4.3,7.6,6,11.8c17.2,5.7,33.1,11.2,44.9,15.5
		c-0.3-1-0.6-2-0.9-2.9c0,0,0-0.1,0-0.1C1799.3,520.1,1799,519.2,1798.7,518.3z"/>
	<g>
		<path fill="#B9BED6" d="M1684.6,437.9v11c0,35.1-28.5,63.6-63.6,63.6s-63.6-28.5-63.6-63.6v-11c19.2-6,40.8-9.3,63.6-9.3
			C1643.8,428.6,1665.4,431.9,1684.6,437.9z"/>
		<path fill="#ECA49B" d="M1621.1,505.7L1621.1,505.7c-31.4,0-56.8-25.4-56.8-56.8v-62.1h113.6v62.1
			C1677.9,480.3,1652.4,505.7,1621.1,505.7z"/>
		<path fill="#D38984" d="M1564.3,435.3c11.9,9.2,26.9,14.8,43.1,14.8h56.6c4.7,0,9.3-0.5,13.8-1.4v-61.8h-113.6V435.3z"/>
	</g>
	<path fill="#ECA49B" d="M1649.4,428.6h-56.6c-38.9,0-70.5-31.6-70.5-70.5v-90.2c0-44.1,35.7-79.8,79.8-79.8h38
		c44.1,0,79.8,35.7,79.8,79.8v90.2C1719.9,397,1688.3,428.6,1649.4,428.6z"/>
	<g>
		<path fill="#ECA49B" d="M1760,339.4c0,17.5-14.2,31.7-31.7,31.7l0,0c-17.5,0-31.7-14.2-31.7-31.7v0c0-17.5,14.2-31.7,31.7-31.7
			l0,0C1745.8,307.7,1760,321.9,1760,339.4L1760,339.4z"/>
		<path fill="#ECA49B" d="M1545.5,339.4c0,17.5-14.2,31.7-31.7,31.7l0,0c-17.5,0-31.7-14.2-31.7-31.7v0c0-17.5,14.2-31.7,31.7-31.7
			l0,0C1531.3,307.7,1545.5,321.9,1545.5,339.4L1545.5,339.4z"/>
	</g>
	<path fill="#EFF1F9" d="M1621.1,400.6L1621.1,400.6c-12.9,0-23.4-10.5-23.4-23.4v-10.3h46.8v10.3
		C1644.5,390.1,1634,400.6,1621.1,400.6z"/>
	<path fill="#ECA49B" d="M1628.3,443.2h-14.5c-11.5,0-20.8-9.3-20.8-20.8v-13.4h56.1v13.4C1649.1,433.9,1639.8,443.2,1628.3,443.2z"
		/>
	<g>
		<g>
			<path fill="#ECA49B" d="M1631.5,918.8c-15.9,106.1,8.5,254.6,62.9,392.7c28.5,0,30.5-64.6,30.5-64.6l-54.9-328.1L1631.5,918.8
				L1631.5,918.8z"/>
			<path fill="#ECA49B" d="M1833.5,1678.6l-34.6-222.8c3.3-11.7,4.3-23.9,3.1-36.1l-3.7-36.3c-1.9-18.1-8.3-35-18.3-49.4l-7.5-48.2
				c-0.1-0.5-0.2-1-0.3-1.6l-2.1-10.7c15-100.3,33.6-206.5-57.8-414.3h-13.2l-7.2,6.5l0-0.2c-4.6-23.9-27.3-39.4-50.9-34.8
				c-23.5,4.6-38.9,27.7-34.3,51.6l80.2,418l7.3,46.9c-6.7,19.9-8.9,42.7-5.8,65.1l4.9,35.8c2.4,17.8,8.3,34.2,17,47.4l9.1,13.8
				l28.4,183c3.4,21.7,21.8,37.2,42.8,37.2c2.2,0,4.5-0.2,6.8-0.5C1821.1,1725.1,1837.2,1702.6,1833.5,1678.6z"/>
			<path fill="#FFFFFF" d="M1790.6,1729.5c-21,0-39.4-15.5-42.8-37.2l-8.4-54.1c-3.7-24,12.4-46.5,36.1-50.3
				c23.7-3.8,45.9,12.6,49.6,36.6l8.4,54.1c3.7,24-12.4,46.5-36.1,50.3C1795.1,1729.3,1792.9,1729.5,1790.6,1729.5z"/>
			<path fill="#C9807B" d="M1727.1,1312.3c-14.9,0-27.2-11.1-29.4-25.6c-0.2,1.5-0.3,3-0.3,4.5c0,16.6,13.3,30.1,29.7,30.1
				c16.4,0,29.7-13.5,29.7-30.1c0-1.5-0.1-3-0.3-4.5C1754.3,1301.2,1742,1312.3,1727.1,1312.3z"/>
			<path fill="#F9BBB7" d="M1701.6,1375c-4.6,0.7-7.7,5-7,9.7l6.9,46.8c0.7,4.6,5,7.8,9.5,7.2c4.6-0.7,7.7-5,7-9.7l-6.9-46.8
				C1710.5,1377.5,1706.2,1374.3,1701.6,1375z"/>
			<path fill="#404263" d="M1763.1,1683.5v-9.3c0-8.4-6.4-15.7-14.7-16c-8.8-0.4-16.1,6.7-16.1,15.6v109.6h8.2h22.6h45.5v-87.2
				h-33.1C1768.7,1696.1,1763.1,1690.5,1763.1,1683.5z"/>
			<path fill="#404263" d="M1856.3,1745.8h-77.7v-74.7c0-13.6,11-24.6,24.6-24.6h28.5c13.6,0,24.6,11,24.6,24.6V1745.8z"/>
			<path fill="#505372" d="M1814.2,1698.9h21.3c34.2,0,61.9,27.7,61.9,61.9v22.5h-145.1v-22.5
				C1752.3,1726.6,1780,1698.9,1814.2,1698.9z"/>
			<path fill="#DFE0EA" d="M1819.2,1682.4L1819.2,1682.4c-0.6,0-1.2-0.3-1.6-0.7l-14.5-15.4c-0.6-0.7-0.8-1.6-0.4-2.4
				c0.4-0.8,1.2-1.4,2-1.4h29c0.9,0,1.7,0.5,2,1.4c0.3,0.8,0.2,1.8-0.4,2.4l-14.5,15.4C1820.4,1682.1,1819.8,1682.4,1819.2,1682.4z
				 M1809.9,1666.9l9.3,9.9l9.3-9.9H1809.9z"/>
			<path fill="#FFFFFF" d="M1874.9,1765.5h-142.1c-6.6,0-12,5.4-12,12.1v11.5c0,6.7,5.4,12.1,12,12.1h142.1c6.6,0,12-5.4,12-12.1
				v-11.5C1886.9,1770.9,1881.5,1765.5,1874.9,1765.5z"/>
			<path fill="#DFE0EA" d="M1893.8,1765.5h-142.1c-6.6,0-12,5.4-12,12.1v11.5c0,6.7,5.4,12.1,12,12.1h142.1c6.6,0,12-5.4,12-12.1
				v-11.5C1905.8,1770.9,1900.5,1765.5,1893.8,1765.5z"/>
		</g>
		<g>
			<path fill="#ECA49B" d="M1592.4,830.7c-23.5-4.6-46.3,10.9-50.9,34.8l0,0.2l-7.2-6.5h-13.2c-91.4,207.8-72.9,314.1-57.8,414.3
				l-2.1,10.7c-0.1,0.5-0.2,1-0.3,1.6l-7.5,48.2c-10,14.4-16.4,31.3-18.3,49.4l-3.7,36.3c-1.2,12.2-0.2,24.4,3.1,36.1l-34.6,222.8
				c-3.7,24,12.4,46.5,36.1,50.3c2.3,0.4,4.6,0.5,6.8,0.5c21,0,39.4-15.5,42.8-37.2l28.4-183l9.1-13.8c8.7-13.2,14.6-29.6,17-47.4
				l4.9-35.8c3.1-22.4,0.8-45.2-5.8-65.1l7.3-46.9l3.3-17.5c36.9-102.3,57.3-208.2,56.9-296.8l19.9-103.7
				C1631.3,858.4,1615.9,835.3,1592.4,830.7z"/>
			<path fill="#FFFFFF" d="M1442.9,1729.5c21,0,39.4-15.5,42.8-37.2l8.4-54.1c3.7-24-12.4-46.5-36.1-50.3
				c-23.7-3.8-45.9,12.6-49.6,36.6l-8.4,54.1c-3.7,24,12.4,46.5,36.1,50.3C1438.4,1729.3,1440.7,1729.5,1442.9,1729.5z"/>
			<path fill="#C9807B" d="M1506.4,1312.3c14.9,0,27.2-11.1,29.4-25.6c0.2,1.5,0.3,3,0.3,4.5c0,16.6-13.3,30.1-29.7,30.1
				c-16.4,0-29.7-13.5-29.7-30.1c0-1.5,0.1-3,0.3-4.5C1479.2,1301.2,1491.6,1312.3,1506.4,1312.3z"/>
			<path fill="#F9BBB7" d="M1532,1375c4.6,0.7,7.7,5,7,9.7l-6.9,46.8c-0.7,4.6-5,7.8-9.5,7.2c-4.6-0.7-7.7-5-7-9.7l6.9-46.8
				C1523.1,1377.5,1527.4,1374.3,1532,1375z"/>
			<path fill="#404263" d="M1470.4,1683.5v-9.3c0-8.4,6.4-15.7,14.7-16c8.8-0.4,16.1,6.7,16.1,15.6v109.6h-8.2h-22.6h-45.5v-87.2
				h33.1C1464.9,1696.1,1470.4,1690.5,1470.4,1683.5z"/>
			<path fill="#404263" d="M1377.2,1745.8h77.7v-74.7c0-13.6-11-24.6-24.6-24.6h-28.5c-13.6,0-24.6,11-24.6,24.6V1745.8z"/>
			<path fill="#505372" d="M1419.4,1698.9h-21.3c-34.2,0-61.9,27.7-61.9,61.9v22.5h145.1v-22.5
				C1481.3,1726.6,1453.6,1698.9,1419.4,1698.9z"/>
			<path fill="#DFE0EA" d="M1412.7,1681.7l-14.5-15.4c-0.6-0.7-0.8-1.6-0.4-2.4c0.4-0.8,1.2-1.4,2-1.4h29c0.9,0,1.7,0.5,2,1.4
				c0.3,0.8,0.2,1.8-0.4,2.4l-14.5,15.4c-0.4,0.4-1,0.7-1.6,0.7l0,0C1413.7,1682.4,1413.2,1682.1,1412.7,1681.7z M1405,1666.9
				l9.3,9.9l9.3-9.9H1405z"/>
			<path fill="#FFFFFF" d="M1358.6,1765.5h142.1c6.6,0,12,5.4,12,12.1v11.5c0,6.7-5.4,12.1-12,12.1h-142.1c-6.6,0-12-5.4-12-12.1
				v-11.5C1346.7,1770.9,1352,1765.5,1358.6,1765.5z"/>
			<path fill="#DFE0EA" d="M1339.7,1765.5h142.1c6.6,0,12,5.4,12,12.1v11.5c0,6.7-5.4,12.1-12,12.1h-142.1c-6.6,0-12-5.4-12-12.1
				v-11.5C1327.8,1770.9,1333.1,1765.5,1339.7,1765.5z"/>
		</g>
	</g>
	<path fill="#404263" d="M1734.7,854.1v-33.9h-227.2v33.9c-34.3,71.2-68.2,200.2-68.6,280.6c-0.5,85.8,153,82.4,164.3,19.2
		c5.6-31.1,12.8-76.7,18-120.8c5.2,44.1,12.4,89.7,18,120.8c11.3,63.2,164.8,66.6,164.3-19.2C1802.8,1054.3,1769,925.3,1734.7,854.1
		z"/>
	<g>
		<path fill="#E7E8F2" d="M1715,1178.4l-11.2,1.3l16-44l11.2-1.3L1715,1178.4z"/>
		<path fill="#E7E8F2" d="M1736.4,1175.8l-11.2,1.3l16-44l11.2-1.3L1736.4,1175.8z"/>
	</g>
	<path fill="#2D3049" d="M1734.7,854.1v-33.9h-26v33.9c31.3,71.2,62.2,200.2,62.6,280.6c0.2,40.5-30.9,61.1-64.9,64.9
		c45.6,4.6,97.3-15.1,97-64.9C1802.8,1054.3,1769,925.3,1734.7,854.1z"/>
	<path fill="#D18A84" d="M1692,791.4c-7.2,0-14-4.2-17.1-11.2l-22.2-51.2c-4.1-9.4,0.2-20.4,9.7-24.4c9.4-4.1,20.4,0.2,24.4,9.7
		l22.2,51.2c4.1,9.4-0.2,20.4-9.7,24.4C1697,790.9,1694.5,791.4,1692,791.4z"/>
	<g>
		<path fill="#FB8C00" d="M1633.5,673.9H1572v-24.7c0-7.1,5.8-12.9,12.9-12.9h35.8c7.1,0,12.9,5.8,12.9,12.9V673.9z M1576.5,669.4
			h52.5v-20.2c0-4.6-3.8-8.4-8.4-8.4h-35.8c-4.6,0-8.4,3.8-8.4,8.4V669.4z"/>
		<path fill="#FB8C00" d="M1663.7,889.9h-122c-12.9,0-23.4-10.5-23.4-23.4V674.6c0-12.9,10.5-23.4,23.4-23.4h122
			c12.9,0,23.4,10.5,23.4,23.4v191.9C1687.1,879.5,1676.6,889.9,1663.7,889.9z"/>
		<g>
			<path fill="#FB8C00" d="M1580.6,666c0,3.5-2.9,6.4-6.4,6.4s-6.4-2.9-6.4-6.4c0-3.5,2.9-6.4,6.4-6.4S1580.6,662.5,1580.6,666z"/>
			<path fill="#FB8C00" d="M1637.6,666c0,3.5-2.9,6.4-6.4,6.4c-3.5,0-6.4-2.9-6.4-6.4c0-3.5,2.9-6.4,6.4-6.4
				C1634.8,659.6,1637.6,662.5,1637.6,666z"/>
		</g>
	</g>
	<path fill="#ECA49B" d="M1882,765.2c-5-26-30.2-43-56.2-38l-124.9,24.2c-12-13.9-29.7-22.8-49.6-22.8c-36.1,0-65.4,29.3-65.4,65.4
		c0,36.1,29.3,65.4,65.4,65.4c9.8,0,19.1-2.2,27.4-6l165.3-32C1870,816.3,1887,791.2,1882,765.2z"/>
	<path fill="#D38984" d="M1851.1,799.1l-165.3,32c-8.3,3.9-17.6,6-27.4,6c-36.1,0-65.4-29.3-65.4-65.4c0-2.8,0.2-5.6,0.6-8.4
		c-4.9,9.1-7.6,19.6-7.6,30.7c0,36.1,29.3,65.4,65.4,65.4c9.8,0,19.1-2.2,27.4-6l165.3-32c22-4.2,37.5-22.8,38.8-44.2
		C1876,788.2,1864.8,796.4,1851.1,799.1z"/>
	<g>
		<g>
			<path fill="#FFDB8A" d="M1624.6,577.2c-1.2,0.8-2.4,1.4-3.5,2c-0.3,1-1,1.8-1.9,2.3c-0.6,0.3-1.3,0.5-2,0.5c-0.7,0-1.4-0.2-2-0.5
				c-0.4-0.2-0.8-0.5-1.1-0.9c-1.3-0.2-2.7-0.8-4.3-1.6c0.1,0.9,0.4,1.7,0.8,2.4c1.1,2,2.9,3.4,5.2,3.8c0.5,0.1,0.9,0.1,1.4,0.1
				c1.4,0,2.7-0.4,3.9-1.1c1.1-0.7,2.1-1.7,2.7-2.8c0.6-1.1,0.9-2.3,0.9-3.6C1624.7,577.7,1624.7,577.5,1624.6,577.2z M1617.2,573.8
				c0.6,0,1.1,0.1,1.6,0.3c1-0.5,2.1-1.1,3.3-1.9c-1.3-1.1-3-1.8-4.9-1.8c-2.5,0-4.6,1.2-6,3c1.3,0.7,2.3,1.2,3.2,1.5
				C1615.1,574.3,1616.1,573.8,1617.2,573.8z"/>
			<g>
				<path fill="#FFDB8A" d="M1622.5,594.9c0-2.8-0.5-5.3-1.4-7.4v-5.9h-7.7h-1.5h-4.6h-0.6h-0.2v0c-2.4,0.1-4.4,2.1-4.4,4.6v30.3
					c0,2.7,2.2,4.9,4.9,4.9c0.1,0,0.2,0,0.3,0v0h13.7v-19C1622,600.2,1622.5,597.7,1622.5,594.9z"/>
				<path fill="#D6A034" d="M1627,581.5h-1.5h-5.2h-0.2v0c-2.4,0.1-4.4,2.1-4.4,4.6v30.3c0,2.7,2.2,4.9,4.9,4.9
					c2.7,0,4.9-2.2,4.9-4.9v-8.4c0.5,0.1,1,0.2,1.5,0.2c5.3,0,9.1-5.6,9.1-13.4C1636.1,587.1,1632.3,581.5,1627,581.5z"/>
				<path fill="#BC8628" d="M1631.6,594.9c0,4.9-2.1,8.9-4.6,8.9s-4.6-4-4.6-8.9c0-4.9,2.1-8.9,4.6-8.9S1631.6,590,1631.6,594.9z"/>
				<path fill="#D6A034" d="M1611.7,594.9h-5.4c-1.1,0-2-0.9-2-2v-0.1c0-1.1,0.9-2,2-2h5.4c1.1,0,2,0.9,2,2v0.1
					C1613.7,594,1612.8,594.9,1611.7,594.9z"/>
			</g>
		</g>
		<path fill="#F75F88" d="M1618.8,574.2c-1.3,0.6-2.4,1-3.2,1c-0.3,0-0.7-0.1-1.1-0.2c-0.8,0.7-1.3,1.8-1.3,3c0,1,0.4,2,1,2.7
			c0.5,0.1,1,0.1,1.4,0.1c1.6,0,3.4-0.6,5.6-1.6c0.1-0.4,0.2-0.8,0.2-1.3C1621.3,576.2,1620.2,574.8,1618.8,574.2z M1693.3,432.7
			c-4.1-3.2-9.2-5.5-15.5-7.1v5.8c4.8,1.4,8.9,3.3,12,5.7c6.1,4.7,9,11.3,9,20.3c0,18.6-13.4,46-36.7,75.2
			c-15.3,19.1-30.9,33.8-40.1,39.7c1.4,1.2,2.4,3,2.6,5c11.8-7.3,28.8-24.6,42-41.2c11.4-14.3,37.9-50.6,37.9-78.7
			C1704.5,446.7,1700.8,438.4,1693.3,432.7z M1574.6,535c-20-27.7-31.4-54.4-31.4-73.3c0-10.1,3.3-17.9,9.7-23.3
			c3-2.5,6.8-4.6,11.3-6.1v-5.9c-6,1.8-11,4.3-14.9,7.7c-7.8,6.5-11.7,15.8-11.7,27.6c0,41.2,49.9,106.1,72.2,117.4
			c-0.1-0.4-0.1-0.7-0.1-1.1c0-1.7,0.5-3.2,1.5-4.5C1603.7,569.1,1589.7,556,1574.6,535z"/>
		<path fill="#FFDB8A" d="M1613.1,577.9c0,1,0.4,2,1,2.7c-1.3-0.2-2.7-0.8-4.3-1.6c-0.1-0.4-0.1-0.7-0.1-1.1c0-1.7,0.6-3.2,1.5-4.5
			c1.3,0.7,2.3,1.2,3.2,1.5C1613.6,575.7,1613.1,576.8,1613.1,577.9z"/>
		<path fill="#F75F88" d="M1621.1,579.2c0.1-0.4,0.2-0.8,0.2-1.3c0-1.7-1-3.2-2.5-3.8c1-0.5,2.1-1.1,3.3-1.9c1.4,1.2,2.4,3,2.6,5
			C1623.4,578,1622.2,578.7,1621.1,579.2z"/>
	</g>
	<path fill="#7F6149" d="M1724.7,343.6h-4.8v-62.1h16.8v50.2C1736.7,338.3,1731.3,343.6,1724.7,343.6z"/>
	<path fill="#7F6149" d="M1517.4,343.6h4.8v-62.1h-16.8v50.2C1505.4,338.3,1510.8,343.6,1517.4,343.6z"/>
	<path fill="#7F6149" d="M1492.8,94.8c-16.3,25.1-21.5,70.8-17.2,100c-12.1,2.8-25.7-1.2-34.1-10c34.5,96.8,111.3,82.3,136,77.2
		c24.6-5.1,48.3-17,63.6-35.9c12.5-15.5,27.4-51,6.6-66.1c-8.5-6.2-12.4-11.2-22.6-11.4C1607,148.4,1540.9,161.9,1492.8,94.8z"/>
	<path fill="#7F6149" d="M1649.1,182.2c5.4,19.1-4.9,61.8-28.1,83.7c29.3-1.3,58.7-17.6,71.7-37.4c-6.8,24.8,3.9,54.2,18.1,70.5
		c17.5,16.4,29.3-22.8,25.9-25c-3.4-2.3-37.2-86-37.2-86l-26-12.5L1649.1,182.2z"/>
	<path fill="#7F6149" d="M1736.7,174c-19.7,0-36.6,12.1-43.6,29.3h41.6c7.3-4.7,16-7.4,25.4-7.4c6.6,0,12.9,1.4,18.6,3.8
		C1770.8,184.4,1755,174,1736.7,174z"/>
	<path fill="#7F6149" d="M1715.1,126.2c-0.4,26.4-16.6,49-39.5,58.7v43.9c30-5.6,52.7-31.9,52.7-63.5
		C1728.3,150.6,1723.4,137,1715.1,126.2z"/>
	<path fill="#6D4F3A" d="M1577.5,262c24.6-5.1,48.3-17,63.6-35.9c2.1-2.5,4.2-5.6,6.2-9.1c-107.2,51.3-182.2-0.3-205.7-32.3
		C1476,281.6,1552.8,267.1,1577.5,262z"/>
</g>
<g>
	<path fill="#EA8F7D" d="M1177.2,1002.3c-5.1,0-10.2-1.1-15.1-3.5c-17.1-8.4-24.1-29-15.8-46c10.1-20.7,29.3-90.4,43.6-324.1
		c1.2-19,17.5-33.4,36.5-32.2c19,1.2,33.4,17.5,32.2,36.5c-15.5,253.1-36.2,321.1-50.5,350.2
		C1202.2,995.3,1189.9,1002.3,1177.2,1002.3z"/>
	<path fill="#FFFFFF" d="M1035.3,1647.4c-5.1,0-10,0.6-14.7,1.8c-72.5,17.3-72.8,17.4-125.3,29.9c-18.1,4.2-31.5,19.8-31.5,38.4
		c0,21.8,18.5,39.5,41.4,39.5c54.5,0,54.5,0,130.2,0c31.7,0,57.5-24.5,57.5-54.8C1092.8,1671.9,1067.1,1647.4,1035.3,1647.4z"/>
	<path fill="#404263" d="M1033.1,1625.1c-4.9,0-9.6,0.6-14.1,1.8c-69.2,17.3-69.4,17.4-119.6,29.9c-17.3,4.2-30.1,19.8-30.1,38.4
		c0,21.8,17.7,39.5,39.5,39.5c52,0,52,0,124.2,0c30.3,0,54.8-24.5,54.8-54.8C1087.9,1649.7,1063.4,1625.1,1033.1,1625.1z"/>
	<path fill="#404263" d="M1053.8,1614.9L1053.8,1614.9c18.8,0,34.1,15.3,34.1,34.1v24.2c0,18.8-15.3,34.1-34.1,34.1h0
		c-18.8,0-34.1-15.3-34.1-34.1V1649C1019.7,1630.2,1035,1614.9,1053.8,1614.9z"/>
	<path fill="#FFFFFF" d="M1083.8,1714.8c2.2,13.8-12.3,27.6-32.3,30.8c-20.1,3.2-38.1-5.4-40.3-19.2c-2.2-13.8,12.3-27.6,32.3-30.8
		C1063.5,1692.3,1081.6,1700.9,1083.8,1714.8z"/>
	<path fill="#FFFFFF" d="M1159.3,1851L1159.3,1851c-10.7-29.5,4.5-62.1,34-72.8l98.3-35.7c29.5-10.7,62.1,4.5,72.8,34l0,0
		c10.7,29.5-4.5,62.1-34,72.8l-98.3,35.7C1202.6,1895.8,1170,1880.6,1159.3,1851z"/>
	<path fill="#404263" d="M1168.5,1854.4L1168.5,1854.4c-17.1-26.3-9.6-61.6,16.8-78.6l87.8-56.9c26.3-17.1,61.6-9.6,78.6,16.8l0,0
		c17.1,26.3,9.6,61.6-16.8,78.6l-97.9,51.2C1210.7,1882.6,1180.7,1871.4,1168.5,1854.4z"/>
	<path fill="#EA8F7D" d="M1200,988.6c0,25.8-20.9,46.6-46.6,46.6l0,0c-25.8,0-46.6-20.9-46.6-46.6c0,0,0,0,0,0
		c0-25.8,20.9-46.6,46.6-46.6l0,0C1179.1,941.9,1200,962.8,1200,988.6C1200,988.6,1200,988.6,1200,988.6z"/>
	<g>
		<path fill="#BC8628" d="M1137.4,1005.8h-75.6c-10.6,0-19.2-8.6-19.2-19.2c0-10.6,8.6-19.2,19.2-19.2h75.6
			c10.6,0,19.2,8.6,19.2,19.2S1148,1005.8,1137.4,1005.8z"/>
		<g>
			<path fill="#D6A034" d="M1129.8,959l-12.4-17.7h-53.6l-12.4,17.7v59l12.4,17.7h53.6l12.4-17.7V959z"/>
			<path fill="#FFDB8A" d="M1097.6,959l-12.4-17.7h-53.6l-12.4,17.7v59l12.4,17.7h53.6l12.4-17.7V959z"/>
			<path fill="#FFDB8A" d="M1039.8,1020l-4.8-6.9V964l4.8-6.9h37.2l4.8,6.9v49.1l-4.8,6.9H1039.8z"/>
			<path fill="#D6A034" d="M1044.3,1018l-4.8-6.9v-49.1l3.5-4.9h-3.2l-4.8,6.9v49.1l4.8,6.9h37.2l1.4-1.9H1044.3z"/>
			<path fill="#D6A034" d="M1053.2,1001.6l-2.5-2.9v-20.3l2.5-2.9h19.5l2.5,2.9v20.3l-2.5,2.9H1053.2z"/>
			<path fill="#FFDB8A" d="M1048.7,1001.6l-2.5-2.9v-20.3l2.5-2.9h19.5l2.5,2.9v20.3l-2.5,2.9H1048.7z"/>
		</g>
	</g>
	<g>
		<path fill="#D6A034" d="M1512,1050.9l-12.4-17.7H1446l-12.4,17.7v59l12.4,17.7h53.6l12.4-17.7V1050.9z"/>
		<path fill="#FFDB8A" d="M1479.8,1050.9l-12.4-17.7h-53.6l-12.4,17.7v59l12.4,17.7h53.6l12.4-17.7V1050.9z"/>
		<path fill="#FFDB8A" d="M1422,1111.8l-4.8-6.9v-49.1l4.8-6.9h37.2l4.8,6.9v49.1l-4.8,6.9H1422z"/>
		<path fill="#D6A034" d="M1426.5,1109.9l-4.8-6.9v-49.1l3.5-4.9h-3.2l-4.8,6.9v49.1l4.8,6.9h37.2l1.4-1.9H1426.5z"/>
	</g>
	<path fill="#FFCFAE" d="M1330.8,973.2c22.7-30.1-55.1-88.7-92.5-67.8c-0.2-0.1-0.4-0.2-0.6-0.3c-19.6-8.8-42.7-0.1-51.5,19.5
		c-1.4,3-137,304.1-153.1,337.3c-3.2,6.6-4.5,14-3.7,21.3c6.1,55.1-10.4,213.5-35.3,338.9c-4.2,21.1,9.5,41.6,30.6,45.8
		c2.6,0.5,5.1,0.8,7.6,0.8c18.2,0,34.5-12.8,38.1-31.4c22.4-112.9,42.2-274.2,37.3-351.2c4.5-9.8,11.3-24.4,19.5-42.3
		C1182.9,1166.2,1279.4,1041.3,1330.8,973.2z"/>
	<path fill="#303F9F" d="M1238.4,905.4c-0.2-0.1-0.4-0.2-0.6-0.3c-19.6-8.8-42.7-0.1-51.5,19.5c-0.9,1.9-57,126.5-101.4,224.3
		c6.9,17.6,20.3,32.8,37,41.7c11.5,6.1,24.5,9.2,37.5,9.2c55.5-75.1,128.9-170.3,171.4-226.6
		C1353.6,943.1,1275.7,884.4,1238.4,905.4z"/>
	<path fill="#FFCFAE" d="M1356.3,1355.4c-0.3-10.4-0.7-20.9-1.2-31.4c16.4-102.1,25.9-302.2,13.6-361.7c-0.1-0.3-0.1-0.6-0.2-0.8
		c-0.1-0.3-0.1-0.7-0.2-1l0,0c-6.5-28.9-27.4-52.3-54.8-62.3c-9-3.2-15.8-10.6-18.4-19.8c-6.7-23.5-10.2-43.9-11.1-62.6
		c5.4-73.6,134.7-168.4,6.3-221.7c-1.2-0.6-2.3-1.1-3.5-1.6c-5.8-2.4-11.7-3.9-17.7-4.5c0,0,0,0,0,0l0,0
		c-26.5-2.8-52.7,11.8-63.6,37.6c-20.1,47.7-42.9,101.7-45.5,166.1c-2.6,63.7,13.7,131.7,52.7,220.3c5.6,17.6,15.9,32.2,30.1,41.8
		c14.1,77.5,33.3,195.9,35.8,308.7c0.1,3.7,0.7,7.3,1.8,10.8c24.7,78.8,21.2,246.1-7.3,351.2c-5.6,20.8,6.6,42.1,27.4,47.8
		c3.4,0.9,6.8,1.4,10.2,1.4c17.1,0,32.8-11.4,37.6-28.8C1380.3,1626.4,1383.8,1450.1,1356.3,1355.4z"/>
	<path fill="#3F51B5" d="M1368.5,961.4c-0.1-0.3-0.1-0.7-0.2-1l0,0c-6.5-28.9-27.4-52.3-54.8-62.3c-7.3-2.6-13.1-8-16.5-14.8
		c-25.2,15.1-55,20.6-84.3,23.7c-8.8,0.9-17.8,1.7-26.5-0.2c-4.8-1-9.4-3-13.4-5.8c8.7,33.7,21.9,70.1,39.8,110.9
		c5.6,17.6,14.7,32.2,29,41.8c8.4,46,15.5,106.3,22.6,171.4c0.8,7.7,5.6,14.6,12.7,17.8c17.2,7.7,43.3,6.6,78.3-3.3
		c9-2.5,15.4-10.4,16.1-19.7c7.7-99.4,6.1-214.9-2.7-257.6C1368.7,962,1368.6,961.7,1368.5,961.4z"/>
	<path fill="#FFCFAE" d="M1222.1,602.7c-12.5,21.4-68.7,79.4-88.7,106.9c43.7,18.7,118.3,36.7,118.3,36.7s19-7.9,18.4-9.6
		c-0.6-1.7,26.7-89.7,26.7-89.7L1222.1,602.7z"/>
	<path fill="#FFAA94" d="M1242.3,700.4L1242.3,700.4c-37.2-3.5-37.4-3.5-74.4-6.9c0,0-0.1,0-0.1,0c-0.1,0-0.2,0-0.3,0l0,0
		c-1.1-0.1-2.3-0.2-3.4-0.2c-20.5,0-37.1,16.6-37.1,37.1c0,19.3,14.8,35.2,33.7,36.9l0,0c37.2,3.5,37.4,3.5,74.4,6.9
		c0,0,0.1,0,0.1,0c0.1,0,0.2,0,0.3,0l0,0c1.1,0.1,2.3,0.2,3.4,0.2c20.5,0,37.1-16.6,37.1-37.1C1276,718,1261.2,702.1,1242.3,700.4z"
		/>
	<path fill="#FFCFAE" d="M1460.3,1068.5c0-171.9-53.1-340.4-98.6-432.5c-8.4-17-29.1-24-46.1-15.6c-17,8.4-24,29.1-15.6,46.1
		c38.1,77.2,82.1,212.6,90.2,356c-23,6.6-39.8,27.7-39.8,52.8c0,30.3,24.6,54.9,54.9,54.9c30.3,0,54.9-24.6,54.9-54.9
		c0-0.9,0-1.8-0.1-2.7C1460.2,1071.3,1460.3,1069.9,1460.3,1068.5z"/>
	<path fill="#FFCFAE" d="M1460.3,1068.5c0-171.9-53.1-340.4-98.6-432.5c-2.8-5.7-7-10.3-12-13.5c44.7,93.4,95.3,257.9,95.3,425.6
		c0,1.4-0.1,2.8-0.3,4.1c0,0.9,0.1,1.8,0.1,2.7c0,30.3-24.6,54.9-54.9,54.9c-13.3,0-25.5-4.8-35.1-12.7
		c8.4,19.5,27.8,33.1,50.4,33.1c30.3,0,54.9-24.6,54.9-54.9c0-0.9,0-1.8-0.1-2.7C1460.2,1071.3,1460.3,1069.9,1460.3,1068.5z"/>
	<path fill="#FB8C00" d="M1308.6,640.2c6.6-12.5,12.2-23.4,14.7-28c1.2-2.1,0.6-4.9-1.5-6.2c-2.2-1.4-5.1-0.6-6.3,1.7
		c-2.5,4.6-8.2,15.6-14.9,28.4c-6.5,12.4-13.8,26.4-19.9,37.9c-2.8,5.3-7,9.7-12.2,12.6c-20.5,11.4-44.4,12.7-59.9,2.3
		c-8-5.4-12.7-13.2-14.6-22.4c-1.5-7.4,0.3-15.1,4.7-21.3c1.2-1.7,2.4-3.4,3.7-5.1c7.7-10.7,16.4-22.8,30.5-39.7
		c1.6-1.9,1.6-4.7-0.2-6.4c-1.9-1.8-4.9-1.6-6.5,0.4c-14.5,17.3-23.3,29.6-31.1,40.5c-3.8,5.3-7.4,10.3-11.2,15.2
		c-0.2,0.2-0.3,0.4-0.4,0.6c-17.9,20.4-37.2,42-48.2,56.5c-0.7,0.8-1.3,1.6-1.9,2.5v0c-2,3-3.6,6.2-4.7,9.7c-1.1,3.5-1.7,7.2-1.7,11
		c0,19.3,14.8,35.2,33.7,36.9v0c0.4,0,0.8,0.1,1.2,0.1c-0.8,6.7-1.4,13.6-1.8,20.6c15.4,19.1,83,14.7,129,4.4
		c4.6-13.4,11.8-27.2,19.6-41.1c-14.6-6.3-25.3-28.6-25.3-55.1c0,0,0-0.1,0-0.1c0-5.5,1.4-10.8,4-15.6
		C1293.7,668.6,1301.6,653.5,1308.6,640.2z"/>
	<path fill="#D86C00" d="M1272.1,720.7c0,0.6,0.1,1.3,0.1,1.9c0,20.5-16.6,37.1-37.1,37.1c-1.2,0-2.3-0.1-3.4-0.2l0,0
		c-0.1,0-0.2,0-0.3,0c0,0-0.1,0-0.1,0c-37-3.4-37.1-3.4-74.4-6.9l0,0c-13-1.2-24.1-9.1-29.7-20.3c1,18.4,15.4,33.3,33.6,35l0,0
		c37.2,3.5,37.4,3.5,74.4,6.9c0,0,0.1,0,0.1,0c0.1,0,0.2,0,0.3,0l0,0c1.1,0.1,2.3,0.2,3.4,0.2c20.5,0,37.1-16.6,37.1-37.1
		C1276,731.4,1274.6,725.7,1272.1,720.7z"/>
	<g>
		<path fill="#2A2D47" d="M1327.2,507.8c-1.9,6.2-3.5,12.6-3.3,19.1c0.2,6.5,2.3,13.1,6.8,17.8c4.6,4.6,11.9,6.8,17.9,4.3
			c-4.8,4.9-12.6,7.1-19.2,5.3s-12-7.4-13.7-14.1c-2.6,4.8-3.5,11.2-2.3,16.6c1.2,5.3,4.4,10.2,8.8,13.4
			c-9.8-2.8-19.2-9.6-23.4-18.8c-4.3-9.3-4-20.6,1.2-29.4C1305,513.2,1317,507.5,1327.2,507.8z"/>
		<path fill="#2A2D47" d="M1368.2,429.2h-23.6c-15.7,55.6,29.5,76.5,52.6,69.1C1365.1,478.8,1368.5,456.3,1368.2,429.2z"/>
		<path fill="#2A2D47" d="M1379.6,416.4c-2,19.1-1.4,38.7,19.7,43.8c-18.1,9.3-40.1,3-45.1-16
			C1349.1,425.2,1379.6,416.4,1379.6,416.4z"/>
		<path fill="#404263" d="M1403.3,394.8c0,25.2-20.4,45.6-45.6,45.6c-25.2,0-45.6-20.4-45.6-45.6c0-25.2,20.4-45.6,45.6-45.6
			C1382.9,349.1,1403.3,369.6,1403.3,394.8z"/>
		<path fill="#2A2D47" d="M1399,375.6c0.1,1.5,0.2,3,0.2,4.6c0,25.2-20.4,45.6-45.6,45.6c-18.3,0-34.1-10.8-41.4-26.4
			c2.3,23.1,21.7,41.1,45.4,41.1c25.2,0,45.6-20.4,45.6-45.6C1403.3,387.9,1401.8,381.4,1399,375.6z"/>
		<path fill="#404263" d="M1134.2,435.3c0-67.5,52.6-122.3,117.6-122.3c64.9,0,117.6,54.8,117.6,122.3c0,94-52.6,111.3-117.6,111.3
			C1186.8,546.6,1134.2,502.9,1134.2,435.3z"/>
		<path fill="#ED9888" d="M1193,499.7c0,15.6-12.6,28.2-28.2,28.2l0,0c-15.6,0-28.2-12.6-28.2-28.2c0,0,0,0,0,0
			c0-15.6,12.6-28.2,28.2-28.2l0,0C1180.4,471.5,1193,484.1,1193,499.7C1193,499.7,1193,499.7,1193,499.7z"/>
		<path fill="#FFD6BB" d="M1315.7,524.2c-0.2,0.6-0.4,1.2-0.6,1.8c-8.9,23-18.2,61.6-17.3,80.4c1,19.3-13.9,35.7-33.2,36.7
			c-0.6,0-1.2,0-1.8,0c-18.5,0-34-14.5-34.9-33.3c-0.3-5.8-0.1-12,0.4-18.4c2.5-31.9,13.5-69.9,21.6-90.8c7-18,27.3-26.9,45.3-19.9
			C1312.5,487.5,1321.4,506.7,1315.7,524.2z"/>
		<path fill="#F9B7AC" d="M1315.7,524.2c-21.1,38-57.2,64.3-87.4,67.3c2.5-31.9,13.5-69.9,21.6-90.8c7-18,27.3-26.9,45.3-19.9
			C1312.5,487.5,1321.4,506.7,1315.7,524.2z"/>
		<path fill="#FFCFAE" d="M1240.8,334.5c-55.5,0-100.4,31.7-100.4,105.5s44,133.7,90.3,133.7s110.6-59.9,110.6-133.7
			S1296.3,334.5,1240.8,334.5z"/>
		<path fill="#404263" d="M1357.7,432c0,33.5-17.9,60.7-40.1,60.7l0,0c-22.1,0-40.1-27.2-40.1-60.7l0,0c0-33.5,17.9-60.7,40.1-60.7
			l0,0C1339.7,371.3,1357.7,398.5,1357.7,432L1357.7,432z"/>
		<path fill="#404263" d="M1301.4,349.1c-4.7,46.6-35,117.7-124.4,124.1c7.3-4.1,18.2-20.7,20.7-31.2c-13.3,16.6-59.4,43.4-91-1.2
			c17.2,7.3,55.7,2.7,65.9-36.4C1182.8,365.3,1301.4,349.1,1301.4,349.1z"/>
		<path fill="#FFCFAE" d="M1345.6,500.3c0,15.6-12.6,28.2-28.2,28.2l0,0c-15.6,0-28.2-12.6-28.2-28.2c0,0,0,0,0,0
			c0-15.6,12.6-28.2,28.2-28.2l0,0C1333,472.1,1345.6,484.7,1345.6,500.3C1345.6,500.3,1345.6,500.3,1345.6,500.3z"/>
		<path fill="#404263" d="M1313.8,342.7c-2.3-2.6-82.7-19.9-83.1-19.6c-0.4,0.4-32.4,13.2-35.6,14.3c-3.2,1.1-34.4,25.6-35.9,27.8
			c-1.5,2.3-18.8,38.4-18.8,38.4l-3.8,26.3c0,0,0.4,18.5,2.1,19.2c1.7,0.7,62.6-26.1,62.6-26.1s36.9,7.4,39.5,0
			c2.6-7.4,27.5-13.8,29.3-13.8c1.9,0,23.3,1.9,23.3,1.9l-23.3-12.4l49.8,4.7l2.1,0.2c0,0,19.2-31.4,19.2-33.4
			S1316,345.4,1313.8,342.7z"/>
		<path fill="#FFFFFF" d="M1189.9,521.8c1,13.1,11.9,23.4,25.2,23.4c13.3,0,24.2-10.3,25.2-23.4H1189.9z"/>
	</g>
	<g>
		<path fill="#BC8628" d="M1374.8,1097.6h-75.6c-10.6,0-19.2-8.6-19.2-19.2c0-10.6,8.6-19.2,19.2-19.2h75.6
			c10.6,0,19.2,8.6,19.2,19.2C1394,1089,1385.4,1097.6,1374.8,1097.6z"/>
		<g>
			<path fill="#D6A034" d="M1367.2,1050.9l-12.4-17.7h-53.6l-12.4,17.7v59l12.4,17.7h53.6l12.4-17.7V1050.9z"/>
			<path fill="#FFDB8A" d="M1335,1050.9l-12.4-17.7H1269l-12.4,17.7v59l12.4,17.7h53.6l12.4-17.7V1050.9z"/>
			<path fill="#FFDB8A" d="M1277.2,1111.8l-4.8-6.9v-49.1l4.8-6.9h37.2l4.8,6.9v49.1l-4.8,6.9H1277.2z"/>
			<path fill="#D6A034" d="M1281.7,1109.9l-4.8-6.9v-49.1l3.5-4.9h-3.2l-4.8,6.9v49.1l4.8,6.9h37.2l1.4-1.9H1281.7z"/>
			<path fill="#D6A034" d="M1290.6,1093.4l-2.5-2.9v-20.3l2.5-2.9h19.5l2.5,2.9v20.3l-2.5,2.9H1290.6z"/>
			<path fill="#FFDB8A" d="M1286,1093.4l-2.5-2.9v-20.3l2.5-2.9h19.5l2.5,2.9v20.3l-2.5,2.9H1286z"/>
		</g>
	</g>
	<path fill="#404263" d="M1282.9,1784l-43-16.1l16.8-44.7c4.5-11.9,17.7-17.9,29.5-13.4l0,0c11.9,4.5,17.9,17.7,13.4,29.5
		L1282.9,1784z"/>
	<path fill="#FFFFFF" d="M1362.7,1788.8c5.9,9.2,0,23.6-13.3,32.2c-13.3,8.6-28.9,8.1-34.8-1c-5.9-9.2,0-23.6,13.3-32.2
		S1356.8,1779.7,1362.7,1788.8z"/>
	<path fill="#FFFFFF" d="M1273.5,1791.8c-1.4-0.2-2.7-0.8-3.8-1.9l-29.4-31.1c-2.4-2.5-2.3-6.4,0.2-8.8c2.5-2.4,6.4-2.3,8.8,0.2
		l29.4,31.1c2.4,2.5,2.3,6.4-0.2,8.8C1277.1,1791.5,1275.2,1792,1273.5,1791.8z"/>
	<path fill="#FFFFFF" d="M1247.9,1803.3c-1.4-0.2-2.7-0.8-3.8-1.9l-29.4-31.1c-2.4-2.5-2.3-6.4,0.2-8.8c2.5-2.4,6.4-2.3,8.8,0.2
		l29.4,31.1c2.4,2.5,2.3,6.4-0.2,8.8C1251.5,1803,1249.6,1803.5,1247.9,1803.3z"/>
	<path fill="#FFFFFF" d="M1222.3,1814.9c-1.4-0.2-2.7-0.8-3.8-1.9l-27.7-29.3c-2.4-2.5-2.3-6.4,0.2-8.8c2.5-2.4,6.4-2.3,8.8,0.2
		l27.7,29.3c2.4,2.5,2.3,6.4-0.2,8.8C1225.9,1814.5,1224.1,1815.1,1222.3,1814.9z"/>
	<path fill="#404263" d="M973.2,1603.1L973.2,1603.1c9.1-1.4,17.6,4.7,19.1,13.8l5.1,32.1l-32.9,5.3l-5.1-32.1
		C957.9,1613.1,964.1,1604.5,973.2,1603.1z"/>
	<g>
		<path fill="#FFFFFF" d="M970.5,1662.7c-2.1,0-4.1-1.1-5.3-3l-9.2-15c-1.8-2.9-0.9-6.7,2-8.5c2.9-1.8,6.7-0.9,8.5,2l9.2,15
			c1.8,2.9,0.9,6.7-2,8.5C972.7,1662.4,971.6,1662.7,970.5,1662.7z"/>
		<path fill="#FFFFFF" d="M948,1667.9c-2.1,0-4.1-1.1-5.3-3l-9.2-15c-1.8-2.9-0.9-6.7,2-8.5c2.9-1.8,6.7-0.9,8.5,2l9.2,15
			c1.8,2.9,0.9,6.7-2,8.5C950.3,1667.6,949.1,1667.9,948,1667.9z"/>
		<path fill="#FFFFFF" d="M925.6,1673.2c-2.1,0-4.1-1.1-5.3-3l-9.2-15c-1.8-2.9-0.9-6.7,2-8.5c2.9-1.8,6.7-0.9,8.5,2l9.2,15
			c1.8,2.9,0.9,6.7-2,8.5C927.8,1672.9,926.7,1673.2,925.6,1673.2z"/>
	</g>
	<path fill="#FFCFAE" d="M1350.3,1353.1c30.8,13.5,63.2,59.5,16.9,265.6C1339,1589.3,1350.3,1353.1,1350.3,1353.1z"/>
	<path fill="#FFCFAE" d="M1104.5,1269.9c27.8,19,51.2,70-32.1,264.2C1050.1,1500.1,1104.5,1269.9,1104.5,1269.9z"/>
	<g>
		<path fill="#E7E8F2" d="M1295.9,959.7l-7.6,4.3l-7.2-38l7.6-4.3L1295.9,959.7z"/>
		<path fill="#E7E8F2" d="M1310.5,951.4l-7.6,4.3l-7.2-38l7.6-4.3L1310.5,951.4z"/>
	</g>
</g>
</svg>
